<mxfile host="Electron" modified="2023-05-22T20:14:14.076Z" agent="Mozilla/5.0 (Macintosh; Intel Mac OS X 10_15_7) AppleWebKit/537.36 (KHTML, like Gecko) draw.io/21.2.1 Chrome/112.0.5615.87 Electron/24.1.2 Safari/537.36" etag="qSm-yivGex6LSw4OLhxe" version="21.2.1" type="device">
  <diagram id="R2lEEEUBdFMjLlhIrx00" name="Page-1">
    <mxGraphModel dx="1950" dy="-375" grid="1" gridSize="10" guides="1" tooltips="1" connect="1" arrows="1" fold="1" page="1" pageScale="1" pageWidth="850" pageHeight="1100" math="0" shadow="0" extFonts="Permanent Marker^https://fonts.googleapis.com/css?family=Permanent+Marker">
      <root>
        <mxCell id="0" />
        <mxCell id="1" parent="0" />
        <mxCell id="qVDS9Y4xoa_HRoGHc8q_-1" style="edgeStyle=none;rounded=0;orthogonalLoop=1;jettySize=auto;html=1;exitX=0.75;exitY=0;exitDx=0;exitDy=0;startArrow=none;" parent="1" source="qVDS9Y4xoa_HRoGHc8q_-7" edge="1">
          <mxGeometry relative="1" as="geometry">
            <mxPoint x="-315.5" y="1154" as="targetPoint" />
          </mxGeometry>
        </mxCell>
        <mxCell id="qVDS9Y4xoa_HRoGHc8q_-2" style="edgeStyle=none;rounded=0;orthogonalLoop=1;jettySize=auto;html=1;exitX=0.25;exitY=0;exitDx=0;exitDy=0;" parent="1" source="qVDS9Y4xoa_HRoGHc8q_-3" edge="1">
          <mxGeometry relative="1" as="geometry">
            <mxPoint x="-375.5" y="1154" as="targetPoint" />
          </mxGeometry>
        </mxCell>
        <mxCell id="qVDS9Y4xoa_HRoGHc8q_-3" value="EDITOR" style="whiteSpace=wrap;html=1;align=center;shadow=0;sketch=0;fillStyle=solid;strokeColor=#330000;strokeWidth=1;fillColor=#FFFFFF;" parent="1" vertex="1">
          <mxGeometry x="-395.5" y="1214" width="100" height="40" as="geometry" />
        </mxCell>
        <mxCell id="qVDS9Y4xoa_HRoGHc8q_-4" value="WRITER" style="whiteSpace=wrap;html=1;align=center;shadow=0;sketch=0;fillStyle=solid;strokeColor=#330000;strokeWidth=1;fillColor=#FFFFFF;" parent="1" vertex="1">
          <mxGeometry x="-13" y="1214" width="100" height="40" as="geometry" />
        </mxCell>
        <mxCell id="qVDS9Y4xoa_HRoGHc8q_-5" value="name" style="text;html=1;align=center;verticalAlign=middle;resizable=0;points=[];autosize=1;strokeColor=none;fillColor=none;" parent="1" vertex="1">
          <mxGeometry x="-425.5" y="1120" width="50" height="30" as="geometry" />
        </mxCell>
        <mxCell id="qVDS9Y4xoa_HRoGHc8q_-6" value="" style="edgeStyle=none;rounded=0;orthogonalLoop=1;jettySize=auto;html=1;exitX=0.75;exitY=0;exitDx=0;exitDy=0;endArrow=none;" parent="1" source="qVDS9Y4xoa_HRoGHc8q_-3" target="qVDS9Y4xoa_HRoGHc8q_-7" edge="1">
          <mxGeometry relative="1" as="geometry">
            <mxPoint x="-315.5" y="1154" as="targetPoint" />
            <mxPoint x="-320.5" y="1214" as="sourcePoint" />
          </mxGeometry>
        </mxCell>
        <mxCell id="qVDS9Y4xoa_HRoGHc8q_-7" value="" style="ellipse;whiteSpace=wrap;html=1;fillColor=#FFFFFF;strokeColor=#330000;shadow=0;sketch=0;fillStyle=solid;strokeWidth=1;" parent="1" vertex="1">
          <mxGeometry x="-325.5" y="1144" width="20" height="20" as="geometry" />
        </mxCell>
        <mxCell id="qVDS9Y4xoa_HRoGHc8q_-8" value="" style="ellipse;whiteSpace=wrap;html=1;fillColor=#000000;strokeColor=#330000;shadow=0;sketch=0;fillStyle=solid;strokeWidth=1;" parent="1" vertex="1">
          <mxGeometry x="-385.5" y="1144" width="20" height="20" as="geometry" />
        </mxCell>
        <mxCell id="qVDS9Y4xoa_HRoGHc8q_-9" value="city" style="text;html=1;align=center;verticalAlign=middle;resizable=0;points=[];autosize=1;strokeColor=none;fillColor=none;" parent="1" vertex="1">
          <mxGeometry x="-310.5" y="1120" width="40" height="30" as="geometry" />
        </mxCell>
        <mxCell id="qVDS9Y4xoa_HRoGHc8q_-14" style="edgeStyle=none;rounded=0;orthogonalLoop=1;jettySize=auto;html=1;exitX=0.75;exitY=0;exitDx=0;exitDy=0;startArrow=none;" parent="1" source="qVDS9Y4xoa_HRoGHc8q_-18" edge="1">
          <mxGeometry relative="1" as="geometry">
            <mxPoint x="72" y="1154" as="targetPoint" />
          </mxGeometry>
        </mxCell>
        <mxCell id="qVDS9Y4xoa_HRoGHc8q_-15" style="edgeStyle=none;rounded=0;orthogonalLoop=1;jettySize=auto;html=1;exitX=0.25;exitY=0;exitDx=0;exitDy=0;" parent="1" edge="1">
          <mxGeometry relative="1" as="geometry">
            <mxPoint x="12" y="1154" as="targetPoint" />
            <mxPoint x="17" y="1214" as="sourcePoint" />
          </mxGeometry>
        </mxCell>
        <mxCell id="qVDS9Y4xoa_HRoGHc8q_-16" value="firstName" style="text;html=1;align=center;verticalAlign=middle;resizable=0;points=[];autosize=1;strokeColor=none;fillColor=none;" parent="1" vertex="1">
          <mxGeometry x="-48" y="1120" width="70" height="30" as="geometry" />
        </mxCell>
        <mxCell id="qVDS9Y4xoa_HRoGHc8q_-17" value="" style="edgeStyle=none;rounded=0;orthogonalLoop=1;jettySize=auto;html=1;exitX=0.75;exitY=0;exitDx=0;exitDy=0;endArrow=none;" parent="1" target="qVDS9Y4xoa_HRoGHc8q_-18" edge="1">
          <mxGeometry relative="1" as="geometry">
            <mxPoint x="72" y="1154" as="targetPoint" />
            <mxPoint x="67" y="1214" as="sourcePoint" />
          </mxGeometry>
        </mxCell>
        <mxCell id="qVDS9Y4xoa_HRoGHc8q_-18" value="" style="ellipse;whiteSpace=wrap;html=1;fillColor=#FFFFFF;strokeColor=#330000;shadow=0;sketch=0;fillStyle=solid;strokeWidth=1;" parent="1" vertex="1">
          <mxGeometry x="62" y="1144" width="20" height="20" as="geometry" />
        </mxCell>
        <mxCell id="qVDS9Y4xoa_HRoGHc8q_-19" value="" style="ellipse;whiteSpace=wrap;html=1;fillColor=#FFFFFF;strokeColor=#330000;shadow=0;sketch=0;fillStyle=solid;strokeWidth=1;" parent="1" vertex="1">
          <mxGeometry x="2" y="1144" width="20" height="20" as="geometry" />
        </mxCell>
        <mxCell id="qVDS9Y4xoa_HRoGHc8q_-20" value="" style="shape=waypoint;fillStyle=solid;size=6;pointerEvents=1;points=[];resizable=0;rotatable=0;perimeter=centerPerimeter;snapToPoint=1;strokeWidth=3;fillColor=none;strokeColor=default;perimeterSpacing=0;shadow=0;sketch=0;flipV=0;flipH=0;" parent="1" vertex="1">
          <mxGeometry x="5" y="1184" width="20" height="20" as="geometry" />
        </mxCell>
        <mxCell id="qVDS9Y4xoa_HRoGHc8q_-21" value="" style="shape=waypoint;fillStyle=solid;size=6;pointerEvents=1;points=[];resizable=0;rotatable=0;perimeter=centerPerimeter;snapToPoint=1;strokeWidth=3;fillColor=none;strokeColor=default;perimeterSpacing=0;shadow=0;sketch=0;flipV=0;flipH=0;" parent="1" vertex="1">
          <mxGeometry x="59" y="1184" width="20" height="20" as="geometry" />
        </mxCell>
        <mxCell id="qVDS9Y4xoa_HRoGHc8q_-22" value="" style="curved=1;endArrow=classic;html=1;rounded=0;entryX=0.574;entryY=0.321;entryDx=0;entryDy=0;entryPerimeter=0;exitX=0.574;exitY=0.321;exitDx=0;exitDy=0;exitPerimeter=0;" parent="1" edge="1">
          <mxGeometry width="50" height="50" relative="1" as="geometry">
            <mxPoint x="95.5" y="1199" as="sourcePoint" />
            <mxPoint x="-20" y="1204" as="targetPoint" />
            <Array as="points">
              <mxPoint x="10.25" y="1184" />
              <mxPoint x="-19.75" y="1204" />
            </Array>
          </mxGeometry>
        </mxCell>
        <mxCell id="qVDS9Y4xoa_HRoGHc8q_-23" value="" style="shape=waypoint;fillStyle=solid;size=6;pointerEvents=1;points=[];resizable=0;rotatable=0;perimeter=centerPerimeter;snapToPoint=1;strokeWidth=8;fillColor=none;strokeColor=default;perimeterSpacing=0;shadow=0;sketch=0;" parent="1" vertex="1">
          <mxGeometry x="-25.5" y="1190" width="20" height="20" as="geometry" />
        </mxCell>
        <mxCell id="qVDS9Y4xoa_HRoGHc8q_-24" value="lastName" style="text;html=1;align=center;verticalAlign=middle;resizable=0;points=[];autosize=1;strokeColor=none;fillColor=none;" parent="1" vertex="1">
          <mxGeometry x="72" y="1122" width="70" height="30" as="geometry" />
        </mxCell>
        <mxCell id="qVDS9Y4xoa_HRoGHc8q_-25" value="PUBLISHING" style="shape=rhombus;perimeter=rhombusPerimeter;whiteSpace=wrap;html=1;align=center;shadow=0;sketch=0;fillStyle=solid;strokeColor=#330000;strokeWidth=1;fillColor=#FFFFFF;" parent="1" vertex="1">
          <mxGeometry x="-400.5" y="1330" width="120" height="60" as="geometry" />
        </mxCell>
        <mxCell id="qVDS9Y4xoa_HRoGHc8q_-26" value="" style="endArrow=none;html=1;rounded=0;" parent="1" target="qVDS9Y4xoa_HRoGHc8q_-25" edge="1">
          <mxGeometry relative="1" as="geometry">
            <mxPoint x="-340.5" y="1254" as="sourcePoint" />
            <mxPoint x="-265.5" y="1254" as="targetPoint" />
          </mxGeometry>
        </mxCell>
        <mxCell id="qVDS9Y4xoa_HRoGHc8q_-27" value="(1, N)" style="resizable=0;html=1;align=left;verticalAlign=bottom;shadow=0;sketch=0;fillStyle=solid;strokeColor=#330000;strokeWidth=1;fillColor=#FFFFFF;" parent="qVDS9Y4xoa_HRoGHc8q_-26" connectable="0" vertex="1">
          <mxGeometry x="-1" relative="1" as="geometry">
            <mxPoint x="1" y="19" as="offset" />
          </mxGeometry>
        </mxCell>
        <mxCell id="qVDS9Y4xoa_HRoGHc8q_-28" value="COMIC BOOK" style="whiteSpace=wrap;html=1;align=center;shadow=0;sketch=0;fillStyle=solid;strokeColor=#330000;strokeWidth=1;fillColor=#FFFFFF;" parent="1" vertex="1">
          <mxGeometry x="-196" y="1340" width="100" height="40" as="geometry" />
        </mxCell>
        <mxCell id="qVDS9Y4xoa_HRoGHc8q_-29" value="" style="endArrow=none;html=1;rounded=0;" parent="1" edge="1">
          <mxGeometry relative="1" as="geometry">
            <mxPoint x="-281.5" y="1360" as="sourcePoint" />
            <mxPoint x="-196" y="1360" as="targetPoint" />
          </mxGeometry>
        </mxCell>
        <mxCell id="qVDS9Y4xoa_HRoGHc8q_-30" value="(1, 1)" style="resizable=0;html=1;align=left;verticalAlign=bottom;shadow=0;sketch=0;fillStyle=solid;strokeColor=#330000;strokeWidth=1;fillColor=#FFFFFF;" parent="qVDS9Y4xoa_HRoGHc8q_-29" connectable="0" vertex="1">
          <mxGeometry x="-1" relative="1" as="geometry">
            <mxPoint x="48" as="offset" />
          </mxGeometry>
        </mxCell>
        <mxCell id="qVDS9Y4xoa_HRoGHc8q_-33" value="coverTitle" style="text;html=1;align=center;verticalAlign=middle;resizable=0;points=[];autosize=1;strokeColor=none;fillColor=none;" parent="1" vertex="1">
          <mxGeometry x="-114" y="1247" width="80" height="30" as="geometry" />
        </mxCell>
        <mxCell id="qVDS9Y4xoa_HRoGHc8q_-37" value="ARTIST" style="whiteSpace=wrap;html=1;align=center;shadow=0;sketch=0;fillStyle=solid;strokeColor=#330000;strokeWidth=1;fillColor=#FFFFFF;" parent="1" vertex="1">
          <mxGeometry x="186.25" y="1340" width="100" height="40" as="geometry" />
        </mxCell>
        <mxCell id="qVDS9Y4xoa_HRoGHc8q_-38" value="AUTHORING" style="shape=rhombus;perimeter=rhombusPerimeter;whiteSpace=wrap;html=1;align=center;shadow=0;sketch=0;fillStyle=solid;strokeColor=#330000;strokeWidth=1;fillColor=#FFFFFF;" parent="1" vertex="1">
          <mxGeometry x="-18.75" y="1330" width="120" height="60" as="geometry" />
        </mxCell>
        <mxCell id="qVDS9Y4xoa_HRoGHc8q_-39" value="" style="endArrow=none;html=1;rounded=0;" parent="1" edge="1">
          <mxGeometry relative="1" as="geometry">
            <mxPoint x="-96.25" y="1360" as="sourcePoint" />
            <mxPoint x="-16.25" y="1360" as="targetPoint" />
          </mxGeometry>
        </mxCell>
        <mxCell id="qVDS9Y4xoa_HRoGHc8q_-40" value="(1, N)" style="resizable=0;html=1;align=left;verticalAlign=bottom;shadow=0;sketch=0;fillStyle=solid;strokeColor=#330000;strokeWidth=1;fillColor=#FFFFFF;" parent="qVDS9Y4xoa_HRoGHc8q_-39" connectable="0" vertex="1">
          <mxGeometry x="-1" relative="1" as="geometry">
            <mxPoint x="5" as="offset" />
          </mxGeometry>
        </mxCell>
        <mxCell id="qVDS9Y4xoa_HRoGHc8q_-41" value="" style="endArrow=none;html=1;rounded=0;" parent="1" edge="1">
          <mxGeometry relative="1" as="geometry">
            <mxPoint x="100.75" y="1360" as="sourcePoint" />
            <mxPoint x="186.25" y="1360" as="targetPoint" />
          </mxGeometry>
        </mxCell>
        <mxCell id="qVDS9Y4xoa_HRoGHc8q_-42" value="(1, N)" style="resizable=0;html=1;align=left;verticalAlign=bottom;shadow=0;sketch=0;fillStyle=solid;strokeColor=#330000;strokeWidth=1;fillColor=#FFFFFF;" parent="qVDS9Y4xoa_HRoGHc8q_-41" connectable="0" vertex="1">
          <mxGeometry x="-1" relative="1" as="geometry">
            <mxPoint x="47" as="offset" />
          </mxGeometry>
        </mxCell>
        <mxCell id="qVDS9Y4xoa_HRoGHc8q_-43" style="edgeStyle=none;rounded=0;orthogonalLoop=1;jettySize=auto;html=1;exitX=0.75;exitY=0;exitDx=0;exitDy=0;startArrow=none;" parent="1" source="qVDS9Y4xoa_HRoGHc8q_-47" edge="1">
          <mxGeometry relative="1" as="geometry">
            <mxPoint x="271.25" y="1280" as="targetPoint" />
          </mxGeometry>
        </mxCell>
        <mxCell id="qVDS9Y4xoa_HRoGHc8q_-44" style="edgeStyle=none;rounded=0;orthogonalLoop=1;jettySize=auto;html=1;exitX=0.25;exitY=0;exitDx=0;exitDy=0;" parent="1" edge="1">
          <mxGeometry relative="1" as="geometry">
            <mxPoint x="211.25" y="1280" as="targetPoint" />
            <mxPoint x="216.25" y="1340" as="sourcePoint" />
          </mxGeometry>
        </mxCell>
        <mxCell id="qVDS9Y4xoa_HRoGHc8q_-45" value="firstName" style="text;html=1;align=center;verticalAlign=middle;resizable=0;points=[];autosize=1;strokeColor=none;fillColor=none;" parent="1" vertex="1">
          <mxGeometry x="154.25" y="1246" width="70" height="30" as="geometry" />
        </mxCell>
        <mxCell id="qVDS9Y4xoa_HRoGHc8q_-46" value="" style="edgeStyle=none;rounded=0;orthogonalLoop=1;jettySize=auto;html=1;exitX=0.75;exitY=0;exitDx=0;exitDy=0;endArrow=none;" parent="1" target="qVDS9Y4xoa_HRoGHc8q_-47" edge="1">
          <mxGeometry relative="1" as="geometry">
            <mxPoint x="271.25" y="1280" as="targetPoint" />
            <mxPoint x="266.25" y="1340" as="sourcePoint" />
          </mxGeometry>
        </mxCell>
        <mxCell id="qVDS9Y4xoa_HRoGHc8q_-47" value="" style="ellipse;whiteSpace=wrap;html=1;fillColor=#FFFFFF;strokeColor=#330000;shadow=0;sketch=0;fillStyle=solid;strokeWidth=1;" parent="1" vertex="1">
          <mxGeometry x="261.25" y="1270" width="20" height="20" as="geometry" />
        </mxCell>
        <mxCell id="qVDS9Y4xoa_HRoGHc8q_-48" value="" style="ellipse;whiteSpace=wrap;html=1;fillColor=#FFFFFF;strokeColor=#330000;shadow=0;sketch=0;fillStyle=solid;strokeWidth=1;" parent="1" vertex="1">
          <mxGeometry x="201.25" y="1270" width="20" height="20" as="geometry" />
        </mxCell>
        <mxCell id="qVDS9Y4xoa_HRoGHc8q_-49" value="" style="shape=waypoint;fillStyle=solid;size=6;pointerEvents=1;points=[];resizable=0;rotatable=0;perimeter=centerPerimeter;snapToPoint=1;strokeWidth=3;fillColor=none;strokeColor=default;perimeterSpacing=0;shadow=0;sketch=0;flipV=0;flipH=0;" parent="1" vertex="1">
          <mxGeometry x="204.25" y="1310" width="20" height="20" as="geometry" />
        </mxCell>
        <mxCell id="qVDS9Y4xoa_HRoGHc8q_-50" value="" style="shape=waypoint;fillStyle=solid;size=6;pointerEvents=1;points=[];resizable=0;rotatable=0;perimeter=centerPerimeter;snapToPoint=1;strokeWidth=3;fillColor=none;strokeColor=default;perimeterSpacing=0;shadow=0;sketch=0;flipV=0;flipH=0;" parent="1" vertex="1">
          <mxGeometry x="258.25" y="1310" width="20" height="20" as="geometry" />
        </mxCell>
        <mxCell id="qVDS9Y4xoa_HRoGHc8q_-51" value="" style="curved=1;endArrow=classic;html=1;rounded=0;entryX=0.574;entryY=0.321;entryDx=0;entryDy=0;entryPerimeter=0;" parent="1" target="qVDS9Y4xoa_HRoGHc8q_-52" edge="1">
          <mxGeometry width="50" height="50" relative="1" as="geometry">
            <mxPoint x="186.25" y="1330" as="sourcePoint" />
            <mxPoint x="316.5" y="1310" as="targetPoint" />
            <Array as="points">
              <mxPoint x="186.5" y="1330" />
              <mxPoint x="216.5" y="1310" />
            </Array>
          </mxGeometry>
        </mxCell>
        <mxCell id="qVDS9Y4xoa_HRoGHc8q_-52" value="" style="shape=waypoint;fillStyle=solid;size=6;pointerEvents=1;points=[];resizable=0;rotatable=0;perimeter=centerPerimeter;snapToPoint=1;strokeWidth=8;fillColor=none;strokeColor=default;perimeterSpacing=0;shadow=0;sketch=0;" parent="1" vertex="1">
          <mxGeometry x="303.75" y="1315" width="20" height="20" as="geometry" />
        </mxCell>
        <mxCell id="qVDS9Y4xoa_HRoGHc8q_-53" value="lastName" style="text;html=1;align=center;verticalAlign=middle;resizable=0;points=[];autosize=1;strokeColor=none;fillColor=none;" parent="1" vertex="1">
          <mxGeometry x="274.25" y="1248" width="70" height="30" as="geometry" />
        </mxCell>
        <mxCell id="qVDS9Y4xoa_HRoGHc8q_-54" value="" style="endArrow=none;html=1;rounded=0;" parent="1" edge="1">
          <mxGeometry width="50" height="50" relative="1" as="geometry">
            <mxPoint x="249.75" y="1381" as="sourcePoint" />
            <mxPoint x="273.75" y="1430" as="targetPoint" />
          </mxGeometry>
        </mxCell>
        <mxCell id="qVDS9Y4xoa_HRoGHc8q_-55" value="" style="ellipse;whiteSpace=wrap;html=1;aspect=fixed;shadow=0;sketch=0;fillStyle=solid;strokeColor=#330000;strokeWidth=1;fillColor=#FFFFFF;" parent="1" vertex="1">
          <mxGeometry x="265.25" y="1430" width="20" height="20" as="geometry" />
        </mxCell>
        <mxCell id="qVDS9Y4xoa_HRoGHc8q_-56" value="" style="endArrow=none;html=1;rounded=0;" parent="1" edge="1">
          <mxGeometry relative="1" as="geometry">
            <mxPoint x="40.659999999999854" y="1254" as="sourcePoint" />
            <mxPoint x="40.659999999999854" y="1330" as="targetPoint" />
          </mxGeometry>
        </mxCell>
        <mxCell id="qVDS9Y4xoa_HRoGHc8q_-57" value="(1, N)" style="resizable=0;html=1;align=left;verticalAlign=bottom;shadow=0;sketch=0;fillStyle=solid;strokeColor=#330000;strokeWidth=1;fillColor=#FFFFFF;" parent="qVDS9Y4xoa_HRoGHc8q_-56" connectable="0" vertex="1">
          <mxGeometry x="-1" relative="1" as="geometry">
            <mxPoint x="1" y="19" as="offset" />
          </mxGeometry>
        </mxCell>
        <mxCell id="qVDS9Y4xoa_HRoGHc8q_-58" value="pseudonym" style="text;html=1;align=center;verticalAlign=middle;resizable=0;points=[];autosize=1;strokeColor=none;fillColor=none;" parent="1" vertex="1">
          <mxGeometry x="272.25" y="1433" width="90" height="30" as="geometry" />
        </mxCell>
        <mxCell id="qVDS9Y4xoa_HRoGHc8q_-59" value="" style="endArrow=none;html=1;rounded=0;" parent="1" edge="1">
          <mxGeometry width="50" height="50" relative="1" as="geometry">
            <mxPoint x="87" y="1235" as="sourcePoint" />
            <mxPoint x="140" y="1210" as="targetPoint" />
          </mxGeometry>
        </mxCell>
        <mxCell id="qVDS9Y4xoa_HRoGHc8q_-60" value="" style="ellipse;whiteSpace=wrap;html=1;aspect=fixed;shadow=0;sketch=0;fillStyle=solid;strokeColor=#330000;strokeWidth=1;fillColor=#FFFFFF;flipV=1;" parent="1" vertex="1">
          <mxGeometry x="138.25" y="1197" width="20" height="20" as="geometry" />
        </mxCell>
        <mxCell id="qVDS9Y4xoa_HRoGHc8q_-61" value="pseudonym" style="text;html=1;align=center;verticalAlign=middle;resizable=0;points=[];autosize=1;strokeColor=none;fillColor=none;flipV=1;" parent="1" vertex="1">
          <mxGeometry x="126.5" y="1174" width="90" height="30" as="geometry" />
        </mxCell>
        <mxCell id="qVDS9Y4xoa_HRoGHc8q_-62" value="" style="endArrow=none;html=1;rounded=0;" parent="1" edge="1">
          <mxGeometry relative="1" as="geometry">
            <mxPoint x="-146.59000000000015" y="1462" as="sourcePoint" />
            <mxPoint x="-146.59000000000015" y="1380" as="targetPoint" />
          </mxGeometry>
        </mxCell>
        <mxCell id="qVDS9Y4xoa_HRoGHc8q_-63" value="(1, N)" style="resizable=0;html=1;align=left;verticalAlign=bottom;shadow=0;sketch=0;fillStyle=solid;strokeColor=#330000;strokeWidth=1;fillColor=#FFFFFF;" parent="qVDS9Y4xoa_HRoGHc8q_-62" connectable="0" vertex="1">
          <mxGeometry x="-1" relative="1" as="geometry">
            <mxPoint x="1" y="-59" as="offset" />
          </mxGeometry>
        </mxCell>
        <mxCell id="qVDS9Y4xoa_HRoGHc8q_-64" value="STARRING" style="shape=rhombus;perimeter=rhombusPerimeter;whiteSpace=wrap;html=1;align=center;shadow=0;sketch=0;fillStyle=solid;strokeColor=#330000;strokeWidth=1;fillColor=#FFFFFF;" parent="1" vertex="1">
          <mxGeometry x="-207" y="1463" width="120" height="60" as="geometry" />
        </mxCell>
        <mxCell id="qVDS9Y4xoa_HRoGHc8q_-65" value="" style="endArrow=none;html=1;rounded=0;" parent="1" edge="1">
          <mxGeometry relative="1" as="geometry">
            <mxPoint x="-146.59000000000015" y="1605" as="sourcePoint" />
            <mxPoint x="-146.59000000000015" y="1523" as="targetPoint" />
          </mxGeometry>
        </mxCell>
        <mxCell id="qVDS9Y4xoa_HRoGHc8q_-66" value="(1, N)" style="resizable=0;html=1;align=left;verticalAlign=bottom;shadow=0;sketch=0;fillStyle=solid;strokeColor=#330000;strokeWidth=1;fillColor=#FFFFFF;" parent="qVDS9Y4xoa_HRoGHc8q_-65" connectable="0" vertex="1">
          <mxGeometry x="-1" relative="1" as="geometry">
            <mxPoint x="1" y="-2" as="offset" />
          </mxGeometry>
        </mxCell>
        <mxCell id="qVDS9Y4xoa_HRoGHc8q_-67" value="CHARACTER" style="whiteSpace=wrap;html=1;align=center;shadow=0;sketch=0;fillStyle=solid;strokeColor=#330000;strokeWidth=1;fillColor=#FFFFFF;" parent="1" vertex="1">
          <mxGeometry x="-196" y="1606" width="100" height="40" as="geometry" />
        </mxCell>
        <mxCell id="qVDS9Y4xoa_HRoGHc8q_-68" value="" style="html=1;shadow=0;dashed=0;align=center;verticalAlign=middle;shape=mxgraph.arrows2.arrow;dy=0.6;dx=40;direction=north;notch=0;fillStyle=solid;fillColor=#000000;" parent="1" vertex="1">
          <mxGeometry x="-162" y="1646" width="30" height="14.55" as="geometry" />
        </mxCell>
        <mxCell id="qVDS9Y4xoa_HRoGHc8q_-69" value="" style="rounded=0;whiteSpace=wrap;html=1;" parent="1" vertex="1">
          <mxGeometry x="-152" y="1660.55" width="10" height="40" as="geometry" />
        </mxCell>
        <mxCell id="qVDS9Y4xoa_HRoGHc8q_-70" value="" style="endArrow=none;html=1;rounded=0;" parent="1" edge="1">
          <mxGeometry width="50" height="50" relative="1" as="geometry">
            <mxPoint x="-280" y="1700" as="sourcePoint" />
            <mxPoint x="-10" y="1700" as="targetPoint" />
          </mxGeometry>
        </mxCell>
        <mxCell id="qVDS9Y4xoa_HRoGHc8q_-71" value="" style="endArrow=none;html=1;rounded=0;" parent="1" edge="1">
          <mxGeometry width="50" height="50" relative="1" as="geometry">
            <mxPoint x="-280" y="1740" as="sourcePoint" />
            <mxPoint x="-280" y="1700" as="targetPoint" />
          </mxGeometry>
        </mxCell>
        <mxCell id="qVDS9Y4xoa_HRoGHc8q_-72" value="" style="endArrow=none;html=1;rounded=0;" parent="1" edge="1">
          <mxGeometry width="50" height="50" relative="1" as="geometry">
            <mxPoint x="-147" y="1740" as="sourcePoint" />
            <mxPoint x="-147" y="1700" as="targetPoint" />
          </mxGeometry>
        </mxCell>
        <mxCell id="qVDS9Y4xoa_HRoGHc8q_-73" value="" style="endArrow=none;html=1;rounded=0;" parent="1" edge="1">
          <mxGeometry width="50" height="50" relative="1" as="geometry">
            <mxPoint x="-10" y="1740" as="sourcePoint" />
            <mxPoint x="-10" y="1700" as="targetPoint" />
          </mxGeometry>
        </mxCell>
        <mxCell id="qVDS9Y4xoa_HRoGHc8q_-74" value="PROTAGONIST" style="whiteSpace=wrap;html=1;align=center;fillStyle=auto;fillColor=#ffffff;" parent="1" vertex="1">
          <mxGeometry x="-331" y="1740" width="100" height="40" as="geometry" />
        </mxCell>
        <mxCell id="qVDS9Y4xoa_HRoGHc8q_-75" value="FRIEND" style="whiteSpace=wrap;html=1;align=center;fillStyle=auto;fillColor=#ffffff;" parent="1" vertex="1">
          <mxGeometry x="-196" y="1740" width="100" height="40" as="geometry" />
        </mxCell>
        <mxCell id="qVDS9Y4xoa_HRoGHc8q_-76" value="FOE" style="whiteSpace=wrap;html=1;align=center;fillStyle=auto;fillColor=#ffffff;" parent="1" vertex="1">
          <mxGeometry x="-64" y="1740" width="100" height="40" as="geometry" />
        </mxCell>
        <mxCell id="qVDS9Y4xoa_HRoGHc8q_-77" value="firstName" style="text;html=1;align=center;verticalAlign=middle;resizable=0;points=[];autosize=1;strokeColor=none;fillColor=none;" parent="1" vertex="1">
          <mxGeometry x="-92.5" y="1520" width="70" height="30" as="geometry" />
        </mxCell>
        <mxCell id="qVDS9Y4xoa_HRoGHc8q_-78" value="" style="edgeStyle=none;rounded=0;orthogonalLoop=1;jettySize=auto;html=1;exitX=0.75;exitY=0;exitDx=0;exitDy=0;endArrow=none;" parent="1" edge="1">
          <mxGeometry relative="1" as="geometry">
            <mxPoint x="-94.83045479853718" y="1555.9654575824497" as="targetPoint" />
            <mxPoint x="-99" y="1606" as="sourcePoint" />
          </mxGeometry>
        </mxCell>
        <mxCell id="qVDS9Y4xoa_HRoGHc8q_-79" value="" style="ellipse;whiteSpace=wrap;html=1;fillColor=#FFFFFF;strokeColor=#330000;shadow=0;sketch=0;fillStyle=solid;strokeWidth=1;" parent="1" vertex="1">
          <mxGeometry x="-30" y="1578" width="20" height="20" as="geometry" />
        </mxCell>
        <mxCell id="qVDS9Y4xoa_HRoGHc8q_-80" value="" style="ellipse;whiteSpace=wrap;html=1;fillColor=#FFFFFF;strokeColor=#330000;shadow=0;sketch=0;fillStyle=solid;strokeWidth=1;" parent="1" vertex="1">
          <mxGeometry x="-105" y="1536" width="20" height="20" as="geometry" />
        </mxCell>
        <mxCell id="qVDS9Y4xoa_HRoGHc8q_-85" value="lastName" style="text;html=1;align=center;verticalAlign=middle;resizable=0;points=[];autosize=1;strokeColor=none;fillColor=none;" parent="1" vertex="1">
          <mxGeometry x="-20" y="1559" width="70" height="30" as="geometry" />
        </mxCell>
        <mxCell id="qVDS9Y4xoa_HRoGHc8q_-86" value="" style="edgeStyle=none;rounded=0;orthogonalLoop=1;jettySize=auto;html=1;exitX=0.75;exitY=0;exitDx=0;exitDy=0;endArrow=none;" parent="1" edge="1">
          <mxGeometry relative="1" as="geometry">
            <mxPoint x="-30" y="1591" as="targetPoint" />
            <mxPoint x="-96" y="1617" as="sourcePoint" />
          </mxGeometry>
        </mxCell>
        <mxCell id="qVDS9Y4xoa_HRoGHc8q_-87" value="" style="endArrow=none;html=1;rounded=0;" parent="1" edge="1">
          <mxGeometry width="50" height="50" relative="1" as="geometry">
            <mxPoint x="-176" y="1606" as="sourcePoint" />
            <mxPoint x="-220" y="1555" as="targetPoint" />
          </mxGeometry>
        </mxCell>
        <mxCell id="qVDS9Y4xoa_HRoGHc8q_-88" value="" style="ellipse;whiteSpace=wrap;html=1;fillColor=#000000;strokeColor=#330000;shadow=0;sketch=0;fillStyle=solid;strokeWidth=1;" parent="1" vertex="1">
          <mxGeometry x="-235" y="1536" width="20" height="20" as="geometry" />
        </mxCell>
        <mxCell id="qVDS9Y4xoa_HRoGHc8q_-89" value="pseudonym" style="text;html=1;align=center;verticalAlign=middle;resizable=0;points=[];autosize=1;strokeColor=none;fillColor=none;flipV=1;" parent="1" vertex="1">
          <mxGeometry x="-314" y="1521" width="90" height="30" as="geometry" />
        </mxCell>
        <mxCell id="qVDS9Y4xoa_HRoGHc8q_-90" value="" style="endArrow=none;html=1;rounded=0;" parent="1" edge="1">
          <mxGeometry width="50" height="50" relative="1" as="geometry">
            <mxPoint x="-174" y="1476" as="sourcePoint" />
            <mxPoint x="-210" y="1430" as="targetPoint" />
          </mxGeometry>
        </mxCell>
        <mxCell id="qVDS9Y4xoa_HRoGHc8q_-91" value="" style="endArrow=none;html=1;rounded=0;" parent="1" edge="1">
          <mxGeometry width="50" height="50" relative="1" as="geometry">
            <mxPoint x="-85" y="1430" as="sourcePoint" />
            <mxPoint x="-121" y="1476" as="targetPoint" />
          </mxGeometry>
        </mxCell>
        <mxCell id="qVDS9Y4xoa_HRoGHc8q_-92" value="" style="ellipse;whiteSpace=wrap;html=1;fillColor=#FFFFFF;strokeColor=#330000;shadow=0;sketch=0;fillStyle=solid;strokeWidth=1;" parent="1" vertex="1">
          <mxGeometry x="-93" y="1413" width="20" height="20" as="geometry" />
        </mxCell>
        <mxCell id="qVDS9Y4xoa_HRoGHc8q_-93" value="" style="ellipse;whiteSpace=wrap;html=1;fillColor=#FFFFFF;strokeColor=#330000;shadow=0;sketch=0;fillStyle=solid;strokeWidth=1;" parent="1" vertex="1">
          <mxGeometry x="-220" y="1413" width="20" height="20" as="geometry" />
        </mxCell>
        <mxCell id="qVDS9Y4xoa_HRoGHc8q_-94" value="city" style="text;html=1;align=center;verticalAlign=middle;resizable=0;points=[];autosize=1;strokeColor=none;fillColor=none;" parent="1" vertex="1">
          <mxGeometry x="-253.5" y="1400" width="40" height="30" as="geometry" />
        </mxCell>
        <mxCell id="qVDS9Y4xoa_HRoGHc8q_-95" value="state" style="text;html=1;align=center;verticalAlign=middle;resizable=0;points=[];autosize=1;strokeColor=none;fillColor=none;" parent="1" vertex="1">
          <mxGeometry x="-83.5" y="1400" width="50" height="30" as="geometry" />
        </mxCell>
        <mxCell id="qVDS9Y4xoa_HRoGHc8q_-219" value="" style="shape=table;startSize=0;container=1;collapsible=0;childLayout=tableLayout;fontSize=16;" parent="1" vertex="1">
          <mxGeometry x="-800" y="1920" width="225" height="340" as="geometry" />
        </mxCell>
        <mxCell id="qVDS9Y4xoa_HRoGHc8q_-242" style="shape=tableRow;horizontal=0;startSize=0;swimlaneHead=0;swimlaneBody=0;strokeColor=inherit;top=0;left=0;bottom=0;right=0;collapsible=0;dropTarget=0;fillColor=none;points=[[0,0.5],[1,0.5]];portConstraint=eastwest;fontSize=16;" parent="qVDS9Y4xoa_HRoGHc8q_-219" vertex="1">
          <mxGeometry width="225" height="40" as="geometry" />
        </mxCell>
        <mxCell id="qVDS9Y4xoa_HRoGHc8q_-243" value="&lt;b&gt;&lt;font style=&quot;font-size: 18px;&quot;&gt;Table of volumes&lt;/font&gt;&lt;/b&gt;" style="shape=partialRectangle;html=1;whiteSpace=wrap;connectable=0;strokeColor=inherit;overflow=hidden;fillColor=none;top=0;left=0;bottom=0;right=0;pointerEvents=1;fontSize=16;rowspan=1;colspan=3;" parent="qVDS9Y4xoa_HRoGHc8q_-242" vertex="1">
          <mxGeometry width="225" height="40" as="geometry">
            <mxRectangle width="100" height="40" as="alternateBounds" />
          </mxGeometry>
        </mxCell>
        <mxCell id="qVDS9Y4xoa_HRoGHc8q_-244" style="shape=partialRectangle;html=1;whiteSpace=wrap;connectable=0;strokeColor=inherit;overflow=hidden;fillColor=none;top=0;left=0;bottom=0;right=0;pointerEvents=1;fontSize=16;" parent="qVDS9Y4xoa_HRoGHc8q_-242" vertex="1" visible="0">
          <mxGeometry x="100" width="60" height="40" as="geometry">
            <mxRectangle width="60" height="40" as="alternateBounds" />
          </mxGeometry>
        </mxCell>
        <mxCell id="qVDS9Y4xoa_HRoGHc8q_-245" style="shape=partialRectangle;html=1;whiteSpace=wrap;connectable=0;strokeColor=inherit;overflow=hidden;fillColor=none;top=0;left=0;bottom=0;right=0;pointerEvents=1;fontSize=16;" parent="qVDS9Y4xoa_HRoGHc8q_-242" vertex="1" visible="0">
          <mxGeometry x="160" width="65" height="40" as="geometry">
            <mxRectangle width="65" height="40" as="alternateBounds" />
          </mxGeometry>
        </mxCell>
        <mxCell id="qVDS9Y4xoa_HRoGHc8q_-220" value="" style="shape=tableRow;horizontal=0;startSize=0;swimlaneHead=0;swimlaneBody=0;strokeColor=inherit;top=0;left=0;bottom=0;right=0;collapsible=0;dropTarget=0;fillColor=none;points=[[0,0.5],[1,0.5]];portConstraint=eastwest;fontSize=16;" parent="qVDS9Y4xoa_HRoGHc8q_-219" vertex="1">
          <mxGeometry y="40" width="225" height="30" as="geometry" />
        </mxCell>
        <mxCell id="qVDS9Y4xoa_HRoGHc8q_-221" value="&lt;b&gt;Concept&lt;/b&gt;" style="shape=partialRectangle;html=1;whiteSpace=wrap;connectable=0;strokeColor=inherit;overflow=hidden;fillColor=none;top=0;left=0;bottom=0;right=0;pointerEvents=1;fontSize=16;" parent="qVDS9Y4xoa_HRoGHc8q_-220" vertex="1">
          <mxGeometry width="100" height="30" as="geometry">
            <mxRectangle width="100" height="30" as="alternateBounds" />
          </mxGeometry>
        </mxCell>
        <mxCell id="qVDS9Y4xoa_HRoGHc8q_-222" value="&lt;b&gt;Type&lt;/b&gt;" style="shape=partialRectangle;html=1;whiteSpace=wrap;connectable=0;strokeColor=inherit;overflow=hidden;fillColor=none;top=0;left=0;bottom=0;right=0;pointerEvents=1;fontSize=16;" parent="qVDS9Y4xoa_HRoGHc8q_-220" vertex="1">
          <mxGeometry x="100" width="60" height="30" as="geometry">
            <mxRectangle width="60" height="30" as="alternateBounds" />
          </mxGeometry>
        </mxCell>
        <mxCell id="qVDS9Y4xoa_HRoGHc8q_-223" value="&lt;b&gt;Volume&lt;/b&gt;" style="shape=partialRectangle;html=1;whiteSpace=wrap;connectable=0;strokeColor=inherit;overflow=hidden;fillColor=none;top=0;left=0;bottom=0;right=0;pointerEvents=1;fontSize=16;" parent="qVDS9Y4xoa_HRoGHc8q_-220" vertex="1">
          <mxGeometry x="160" width="65" height="30" as="geometry">
            <mxRectangle width="65" height="30" as="alternateBounds" />
          </mxGeometry>
        </mxCell>
        <mxCell id="qVDS9Y4xoa_HRoGHc8q_-224" value="" style="shape=tableRow;horizontal=0;startSize=0;swimlaneHead=0;swimlaneBody=0;strokeColor=inherit;top=0;left=0;bottom=0;right=0;collapsible=0;dropTarget=0;fillColor=none;points=[[0,0.5],[1,0.5]];portConstraint=eastwest;fontSize=16;" parent="qVDS9Y4xoa_HRoGHc8q_-219" vertex="1">
          <mxGeometry y="70" width="225" height="190" as="geometry" />
        </mxCell>
        <mxCell id="qVDS9Y4xoa_HRoGHc8q_-225" value="&lt;p style=&quot;line-height: 140%;&quot;&gt;Character&lt;br&gt;Protagonist&lt;br&gt;Friend&lt;br&gt;Foe&lt;br&gt;Comic book&lt;br&gt;Editor&lt;br&gt;Writer&lt;br&gt;Artist&lt;br&gt;Starring&lt;br&gt;Publishing&lt;br&gt;Authoring&lt;/p&gt;" style="shape=partialRectangle;html=1;whiteSpace=wrap;connectable=0;strokeColor=inherit;overflow=hidden;fillColor=none;top=0;left=0;bottom=0;right=0;pointerEvents=1;fontSize=16;rowspan=3;colspan=1;verticalAlign=middle;spacing=2;spacingTop=0;spacingBottom=0;align=left;" parent="qVDS9Y4xoa_HRoGHc8q_-224" vertex="1">
          <mxGeometry width="100" height="270" as="geometry">
            <mxRectangle width="100" height="190" as="alternateBounds" />
          </mxGeometry>
        </mxCell>
        <mxCell id="qVDS9Y4xoa_HRoGHc8q_-226" value="&lt;p style=&quot;line-height: 140%;&quot;&gt;E&lt;br&gt;E&lt;br&gt;E&lt;br&gt;E&lt;br&gt;E&lt;br&gt;E&lt;br&gt;E&lt;br&gt;E&lt;br&gt;R&lt;br&gt;R&lt;br&gt;R&lt;/p&gt;" style="shape=partialRectangle;html=1;whiteSpace=wrap;connectable=0;strokeColor=inherit;overflow=hidden;fillColor=none;top=0;left=0;bottom=0;right=0;pointerEvents=1;fontSize=16;rowspan=3;colspan=1;" parent="qVDS9Y4xoa_HRoGHc8q_-224" vertex="1">
          <mxGeometry x="100" width="60" height="270" as="geometry">
            <mxRectangle width="60" height="190" as="alternateBounds" />
          </mxGeometry>
        </mxCell>
        <mxCell id="qVDS9Y4xoa_HRoGHc8q_-227" value="" style="shape=partialRectangle;html=1;whiteSpace=wrap;connectable=0;strokeColor=inherit;overflow=hidden;fillColor=none;top=0;left=0;bottom=0;right=0;pointerEvents=1;fontSize=16;rowspan=3;colspan=1;" parent="qVDS9Y4xoa_HRoGHc8q_-224" vertex="1">
          <mxGeometry x="160" width="65" height="270" as="geometry">
            <mxRectangle width="65" height="190" as="alternateBounds" />
          </mxGeometry>
        </mxCell>
        <mxCell id="qVDS9Y4xoa_HRoGHc8q_-228" value="" style="shape=tableRow;horizontal=0;startSize=0;swimlaneHead=0;swimlaneBody=0;strokeColor=inherit;top=0;left=0;bottom=0;right=0;collapsible=0;dropTarget=0;fillColor=none;points=[[0,0.5],[1,0.5]];portConstraint=eastwest;fontSize=16;" parent="qVDS9Y4xoa_HRoGHc8q_-219" vertex="1">
          <mxGeometry y="260" width="225" height="40" as="geometry" />
        </mxCell>
        <mxCell id="qVDS9Y4xoa_HRoGHc8q_-229" value="" style="shape=partialRectangle;html=1;whiteSpace=wrap;connectable=0;strokeColor=inherit;overflow=hidden;fillColor=none;top=0;left=0;bottom=0;right=0;pointerEvents=1;fontSize=16;" parent="qVDS9Y4xoa_HRoGHc8q_-228" vertex="1" visible="0">
          <mxGeometry width="100" height="40" as="geometry">
            <mxRectangle width="100" height="40" as="alternateBounds" />
          </mxGeometry>
        </mxCell>
        <mxCell id="qVDS9Y4xoa_HRoGHc8q_-230" value="" style="shape=partialRectangle;html=1;whiteSpace=wrap;connectable=0;strokeColor=inherit;overflow=hidden;fillColor=none;top=0;left=0;bottom=0;right=0;pointerEvents=1;fontSize=16;" parent="qVDS9Y4xoa_HRoGHc8q_-228" vertex="1" visible="0">
          <mxGeometry x="100" width="60" height="40" as="geometry">
            <mxRectangle width="60" height="40" as="alternateBounds" />
          </mxGeometry>
        </mxCell>
        <mxCell id="qVDS9Y4xoa_HRoGHc8q_-231" value="" style="shape=partialRectangle;html=1;whiteSpace=wrap;connectable=0;strokeColor=inherit;overflow=hidden;fillColor=none;top=0;left=0;bottom=0;right=0;pointerEvents=1;fontSize=16;" parent="qVDS9Y4xoa_HRoGHc8q_-228" vertex="1" visible="0">
          <mxGeometry x="160" width="65" height="40" as="geometry">
            <mxRectangle width="65" height="40" as="alternateBounds" />
          </mxGeometry>
        </mxCell>
        <mxCell id="qVDS9Y4xoa_HRoGHc8q_-246" style="shape=tableRow;horizontal=0;startSize=0;swimlaneHead=0;swimlaneBody=0;strokeColor=inherit;top=0;left=0;bottom=0;right=0;collapsible=0;dropTarget=0;fillColor=none;points=[[0,0.5],[1,0.5]];portConstraint=eastwest;fontSize=16;" parent="qVDS9Y4xoa_HRoGHc8q_-219" vertex="1">
          <mxGeometry y="300" width="225" height="40" as="geometry" />
        </mxCell>
        <mxCell id="qVDS9Y4xoa_HRoGHc8q_-247" style="shape=partialRectangle;html=1;whiteSpace=wrap;connectable=0;strokeColor=inherit;overflow=hidden;fillColor=none;top=0;left=0;bottom=0;right=0;pointerEvents=1;fontSize=16;" parent="qVDS9Y4xoa_HRoGHc8q_-246" vertex="1" visible="0">
          <mxGeometry width="100" height="40" as="geometry">
            <mxRectangle width="100" height="40" as="alternateBounds" />
          </mxGeometry>
        </mxCell>
        <mxCell id="qVDS9Y4xoa_HRoGHc8q_-248" style="shape=partialRectangle;html=1;whiteSpace=wrap;connectable=0;strokeColor=inherit;overflow=hidden;fillColor=none;top=0;left=0;bottom=0;right=0;pointerEvents=1;fontSize=16;" parent="qVDS9Y4xoa_HRoGHc8q_-246" vertex="1" visible="0">
          <mxGeometry x="100" width="60" height="40" as="geometry">
            <mxRectangle width="60" height="40" as="alternateBounds" />
          </mxGeometry>
        </mxCell>
        <mxCell id="qVDS9Y4xoa_HRoGHc8q_-249" style="shape=partialRectangle;html=1;whiteSpace=wrap;connectable=0;strokeColor=inherit;overflow=hidden;fillColor=none;top=0;left=0;bottom=0;right=0;pointerEvents=1;fontSize=16;" parent="qVDS9Y4xoa_HRoGHc8q_-246" vertex="1" visible="0">
          <mxGeometry x="160" width="65" height="40" as="geometry">
            <mxRectangle width="65" height="40" as="alternateBounds" />
          </mxGeometry>
        </mxCell>
        <mxCell id="qVDS9Y4xoa_HRoGHc8q_-250" value="&lt;p style=&quot;line-height: 140%;&quot;&gt;50&lt;br&gt;10&lt;br&gt;20&lt;br&gt;30&lt;br&gt;10&lt;br&gt;1&lt;br&gt;20&lt;br&gt;20&lt;br&gt;10&lt;br&gt;10&lt;br&gt;400&lt;/p&gt;" style="shape=partialRectangle;html=1;whiteSpace=wrap;connectable=0;strokeColor=inherit;overflow=hidden;fillColor=none;top=0;left=0;bottom=0;right=0;pointerEvents=1;fontSize=16;rowspan=3;colspan=1;" parent="1" vertex="1">
          <mxGeometry x="-640" y="1990" width="60" height="270" as="geometry">
            <mxRectangle width="60" height="190" as="alternateBounds" />
          </mxGeometry>
        </mxCell>
        <mxCell id="qVDS9Y4xoa_HRoGHc8q_-251" value="" style="shape=table;startSize=0;container=1;collapsible=0;childLayout=tableLayout;fontSize=16;" parent="1" vertex="1">
          <mxGeometry x="-561" y="1920" width="260" height="230" as="geometry" />
        </mxCell>
        <mxCell id="qVDS9Y4xoa_HRoGHc8q_-252" style="shape=tableRow;horizontal=0;startSize=0;swimlaneHead=0;swimlaneBody=0;strokeColor=inherit;top=0;left=0;bottom=0;right=0;collapsible=0;dropTarget=0;fillColor=none;points=[[0,0.5],[1,0.5]];portConstraint=eastwest;fontSize=16;" parent="qVDS9Y4xoa_HRoGHc8q_-251" vertex="1">
          <mxGeometry width="260" height="40" as="geometry" />
        </mxCell>
        <mxCell id="qVDS9Y4xoa_HRoGHc8q_-253" value="&lt;b&gt;&lt;font style=&quot;font-size: 18px;&quot;&gt;Table of operations&lt;/font&gt;&lt;/b&gt;" style="shape=partialRectangle;html=1;whiteSpace=wrap;connectable=0;strokeColor=inherit;overflow=hidden;fillColor=none;top=0;left=0;bottom=0;right=0;pointerEvents=1;fontSize=16;rowspan=1;colspan=3;" parent="qVDS9Y4xoa_HRoGHc8q_-252" vertex="1">
          <mxGeometry width="260" height="40" as="geometry">
            <mxRectangle width="100" height="40" as="alternateBounds" />
          </mxGeometry>
        </mxCell>
        <mxCell id="qVDS9Y4xoa_HRoGHc8q_-254" style="shape=partialRectangle;html=1;whiteSpace=wrap;connectable=0;strokeColor=inherit;overflow=hidden;fillColor=none;top=0;left=0;bottom=0;right=0;pointerEvents=1;fontSize=16;" parent="qVDS9Y4xoa_HRoGHc8q_-252" vertex="1" visible="0">
          <mxGeometry x="100" width="60" height="40" as="geometry">
            <mxRectangle width="60" height="40" as="alternateBounds" />
          </mxGeometry>
        </mxCell>
        <mxCell id="qVDS9Y4xoa_HRoGHc8q_-255" style="shape=partialRectangle;html=1;whiteSpace=wrap;connectable=0;strokeColor=inherit;overflow=hidden;fillColor=none;top=0;left=0;bottom=0;right=0;pointerEvents=1;fontSize=16;" parent="qVDS9Y4xoa_HRoGHc8q_-252" vertex="1" visible="0">
          <mxGeometry x="160" width="100" height="40" as="geometry">
            <mxRectangle width="100" height="40" as="alternateBounds" />
          </mxGeometry>
        </mxCell>
        <mxCell id="qVDS9Y4xoa_HRoGHc8q_-256" value="" style="shape=tableRow;horizontal=0;startSize=0;swimlaneHead=0;swimlaneBody=0;strokeColor=inherit;top=0;left=0;bottom=0;right=0;collapsible=0;dropTarget=0;fillColor=none;points=[[0,0.5],[1,0.5]];portConstraint=eastwest;fontSize=16;" parent="qVDS9Y4xoa_HRoGHc8q_-251" vertex="1">
          <mxGeometry y="40" width="260" height="30" as="geometry" />
        </mxCell>
        <mxCell id="qVDS9Y4xoa_HRoGHc8q_-257" value="&lt;b&gt;Operation&lt;/b&gt;" style="shape=partialRectangle;html=1;whiteSpace=wrap;connectable=0;strokeColor=inherit;overflow=hidden;fillColor=none;top=0;left=0;bottom=0;right=0;pointerEvents=1;fontSize=16;" parent="qVDS9Y4xoa_HRoGHc8q_-256" vertex="1">
          <mxGeometry width="100" height="30" as="geometry">
            <mxRectangle width="100" height="30" as="alternateBounds" />
          </mxGeometry>
        </mxCell>
        <mxCell id="qVDS9Y4xoa_HRoGHc8q_-258" value="&lt;b&gt;Type&lt;/b&gt;" style="shape=partialRectangle;html=1;whiteSpace=wrap;connectable=0;strokeColor=inherit;overflow=hidden;fillColor=none;top=0;left=0;bottom=0;right=0;pointerEvents=1;fontSize=16;" parent="qVDS9Y4xoa_HRoGHc8q_-256" vertex="1">
          <mxGeometry x="100" width="60" height="30" as="geometry">
            <mxRectangle width="60" height="30" as="alternateBounds" />
          </mxGeometry>
        </mxCell>
        <mxCell id="qVDS9Y4xoa_HRoGHc8q_-259" value="&lt;b&gt;Frequency&lt;/b&gt;" style="shape=partialRectangle;html=1;whiteSpace=wrap;connectable=0;strokeColor=inherit;overflow=hidden;fillColor=none;top=0;left=0;bottom=0;right=0;pointerEvents=1;fontSize=16;" parent="qVDS9Y4xoa_HRoGHc8q_-256" vertex="1">
          <mxGeometry x="160" width="100" height="30" as="geometry">
            <mxRectangle width="100" height="30" as="alternateBounds" />
          </mxGeometry>
        </mxCell>
        <mxCell id="qVDS9Y4xoa_HRoGHc8q_-260" value="" style="shape=tableRow;horizontal=0;startSize=0;swimlaneHead=0;swimlaneBody=0;strokeColor=inherit;top=0;left=0;bottom=0;right=0;collapsible=0;dropTarget=0;fillColor=none;points=[[0,0.5],[1,0.5]];portConstraint=eastwest;fontSize=16;" parent="qVDS9Y4xoa_HRoGHc8q_-251" vertex="1">
          <mxGeometry y="70" width="260" height="80" as="geometry" />
        </mxCell>
        <mxCell id="qVDS9Y4xoa_HRoGHc8q_-261" value="&lt;p style=&quot;line-height: 140%;&quot;&gt;Op. 1&lt;br&gt;Op. 2&lt;br&gt;Op. 3&lt;br&gt;Op. 4&lt;br&gt;Op. 5&lt;br style=&quot;border-color: var(--border-color);&quot;&gt;Op. 6&lt;br&gt;&lt;/p&gt;" style="shape=partialRectangle;html=1;whiteSpace=wrap;connectable=0;strokeColor=inherit;overflow=hidden;fillColor=none;top=0;left=0;bottom=0;right=0;pointerEvents=1;fontSize=16;rowspan=3;colspan=1;verticalAlign=middle;spacing=2;spacingTop=0;spacingBottom=0;align=left;" parent="qVDS9Y4xoa_HRoGHc8q_-260" vertex="1">
          <mxGeometry width="100" height="160" as="geometry">
            <mxRectangle width="100" height="80" as="alternateBounds" />
          </mxGeometry>
        </mxCell>
        <mxCell id="qVDS9Y4xoa_HRoGHc8q_-262" value="&lt;p style=&quot;line-height: 140%;&quot;&gt;I&lt;br&gt;I&lt;br&gt;I&lt;br&gt;B&lt;br&gt;B&lt;br&gt;B&lt;/p&gt;" style="shape=partialRectangle;html=1;whiteSpace=wrap;connectable=0;strokeColor=inherit;overflow=hidden;fillColor=none;top=0;left=0;bottom=0;right=0;pointerEvents=1;fontSize=16;rowspan=3;colspan=1;" parent="qVDS9Y4xoa_HRoGHc8q_-260" vertex="1">
          <mxGeometry x="100" width="60" height="160" as="geometry">
            <mxRectangle width="60" height="80" as="alternateBounds" />
          </mxGeometry>
        </mxCell>
        <mxCell id="qVDS9Y4xoa_HRoGHc8q_-263" value="&lt;p style=&quot;line-height: 140%;&quot;&gt;5 per month&lt;br&gt;2 per month&lt;br&gt;1 per month&lt;br&gt;1 per week&lt;br&gt;1 per month&lt;br&gt;1 per year&lt;/p&gt;" style="shape=partialRectangle;html=1;whiteSpace=wrap;connectable=0;strokeColor=inherit;overflow=hidden;fillColor=none;top=0;left=0;bottom=0;right=0;pointerEvents=1;fontSize=16;rowspan=3;colspan=1;" parent="qVDS9Y4xoa_HRoGHc8q_-260" vertex="1">
          <mxGeometry x="160" width="100" height="160" as="geometry">
            <mxRectangle width="100" height="80" as="alternateBounds" />
          </mxGeometry>
        </mxCell>
        <mxCell id="qVDS9Y4xoa_HRoGHc8q_-264" value="" style="shape=tableRow;horizontal=0;startSize=0;swimlaneHead=0;swimlaneBody=0;strokeColor=inherit;top=0;left=0;bottom=0;right=0;collapsible=0;dropTarget=0;fillColor=none;points=[[0,0.5],[1,0.5]];portConstraint=eastwest;fontSize=16;" parent="qVDS9Y4xoa_HRoGHc8q_-251" vertex="1">
          <mxGeometry y="150" width="260" height="40" as="geometry" />
        </mxCell>
        <mxCell id="qVDS9Y4xoa_HRoGHc8q_-265" value="" style="shape=partialRectangle;html=1;whiteSpace=wrap;connectable=0;strokeColor=inherit;overflow=hidden;fillColor=none;top=0;left=0;bottom=0;right=0;pointerEvents=1;fontSize=16;" parent="qVDS9Y4xoa_HRoGHc8q_-264" vertex="1" visible="0">
          <mxGeometry width="100" height="40" as="geometry">
            <mxRectangle width="100" height="40" as="alternateBounds" />
          </mxGeometry>
        </mxCell>
        <mxCell id="qVDS9Y4xoa_HRoGHc8q_-266" value="" style="shape=partialRectangle;html=1;whiteSpace=wrap;connectable=0;strokeColor=inherit;overflow=hidden;fillColor=none;top=0;left=0;bottom=0;right=0;pointerEvents=1;fontSize=16;" parent="qVDS9Y4xoa_HRoGHc8q_-264" vertex="1" visible="0">
          <mxGeometry x="100" width="60" height="40" as="geometry">
            <mxRectangle width="60" height="40" as="alternateBounds" />
          </mxGeometry>
        </mxCell>
        <mxCell id="qVDS9Y4xoa_HRoGHc8q_-267" value="" style="shape=partialRectangle;html=1;whiteSpace=wrap;connectable=0;strokeColor=inherit;overflow=hidden;fillColor=none;top=0;left=0;bottom=0;right=0;pointerEvents=1;fontSize=16;" parent="qVDS9Y4xoa_HRoGHc8q_-264" vertex="1" visible="0">
          <mxGeometry x="160" width="100" height="40" as="geometry">
            <mxRectangle width="100" height="40" as="alternateBounds" />
          </mxGeometry>
        </mxCell>
        <mxCell id="qVDS9Y4xoa_HRoGHc8q_-268" style="shape=tableRow;horizontal=0;startSize=0;swimlaneHead=0;swimlaneBody=0;strokeColor=inherit;top=0;left=0;bottom=0;right=0;collapsible=0;dropTarget=0;fillColor=none;points=[[0,0.5],[1,0.5]];portConstraint=eastwest;fontSize=16;" parent="qVDS9Y4xoa_HRoGHc8q_-251" vertex="1">
          <mxGeometry y="190" width="260" height="40" as="geometry" />
        </mxCell>
        <mxCell id="qVDS9Y4xoa_HRoGHc8q_-269" style="shape=partialRectangle;html=1;whiteSpace=wrap;connectable=0;strokeColor=inherit;overflow=hidden;fillColor=none;top=0;left=0;bottom=0;right=0;pointerEvents=1;fontSize=16;" parent="qVDS9Y4xoa_HRoGHc8q_-268" vertex="1" visible="0">
          <mxGeometry width="100" height="40" as="geometry">
            <mxRectangle width="100" height="40" as="alternateBounds" />
          </mxGeometry>
        </mxCell>
        <mxCell id="qVDS9Y4xoa_HRoGHc8q_-270" style="shape=partialRectangle;html=1;whiteSpace=wrap;connectable=0;strokeColor=inherit;overflow=hidden;fillColor=none;top=0;left=0;bottom=0;right=0;pointerEvents=1;fontSize=16;" parent="qVDS9Y4xoa_HRoGHc8q_-268" vertex="1" visible="0">
          <mxGeometry x="100" width="60" height="40" as="geometry">
            <mxRectangle width="60" height="40" as="alternateBounds" />
          </mxGeometry>
        </mxCell>
        <mxCell id="qVDS9Y4xoa_HRoGHc8q_-271" style="shape=partialRectangle;html=1;whiteSpace=wrap;connectable=0;strokeColor=inherit;overflow=hidden;fillColor=none;top=0;left=0;bottom=0;right=0;pointerEvents=1;fontSize=16;" parent="qVDS9Y4xoa_HRoGHc8q_-268" vertex="1" visible="0">
          <mxGeometry x="160" width="100" height="40" as="geometry">
            <mxRectangle width="100" height="40" as="alternateBounds" />
          </mxGeometry>
        </mxCell>
        <mxCell id="qVDS9Y4xoa_HRoGHc8q_-272" value="" style="endArrow=classic;html=1;rounded=0;fontSize=14;strokeWidth=3;" parent="1" edge="1">
          <mxGeometry width="50" height="50" relative="1" as="geometry">
            <mxPoint x="-340" y="1600" as="sourcePoint" />
            <mxPoint x="-340" y="1480" as="targetPoint" />
          </mxGeometry>
        </mxCell>
        <mxCell id="qVDS9Y4xoa_HRoGHc8q_-273" value="" style="endArrow=classic;html=1;rounded=0;fontSize=14;strokeWidth=3;" parent="1" edge="1">
          <mxGeometry width="50" height="50" relative="1" as="geometry">
            <mxPoint x="-240" y="1240" as="sourcePoint" />
            <mxPoint x="-120" y="1240" as="targetPoint" />
          </mxGeometry>
        </mxCell>
        <mxCell id="qVDS9Y4xoa_HRoGHc8q_-274" value="" style="endArrow=classic;html=1;rounded=0;fontSize=14;strokeWidth=3;" parent="1" edge="1">
          <mxGeometry width="50" height="50" relative="1" as="geometry">
            <mxPoint x="160" y="1430" as="sourcePoint" />
            <mxPoint x="40" y="1430" as="targetPoint" />
          </mxGeometry>
        </mxCell>
        <mxCell id="qVDS9Y4xoa_HRoGHc8q_-275" value="" style="shape=table;startSize=0;container=1;collapsible=0;childLayout=tableLayout;fontSize=16;" parent="1" vertex="1">
          <mxGeometry x="-287" y="1920" width="340" height="270" as="geometry" />
        </mxCell>
        <mxCell id="qVDS9Y4xoa_HRoGHc8q_-276" style="shape=tableRow;horizontal=0;startSize=0;swimlaneHead=0;swimlaneBody=0;strokeColor=inherit;top=0;left=0;bottom=0;right=0;collapsible=0;dropTarget=0;fillColor=none;points=[[0,0.5],[1,0.5]];portConstraint=eastwest;fontSize=16;" parent="qVDS9Y4xoa_HRoGHc8q_-275" vertex="1">
          <mxGeometry width="340" height="40" as="geometry" />
        </mxCell>
        <mxCell id="qVDS9Y4xoa_HRoGHc8q_-316" value="&lt;b style=&quot;border-color: var(--border-color);&quot;&gt;&lt;font style=&quot;border-color: var(--border-color); font-size: 18px;&quot;&gt;Table of accesses - Op. 1&lt;/font&gt;&lt;/b&gt;" style="shape=partialRectangle;html=1;whiteSpace=wrap;connectable=0;strokeColor=inherit;overflow=hidden;fillColor=none;top=0;left=0;bottom=0;right=0;pointerEvents=1;fontSize=16;rowspan=1;colspan=4;" parent="qVDS9Y4xoa_HRoGHc8q_-276" vertex="1">
          <mxGeometry width="340" height="40" as="geometry">
            <mxRectangle width="100" height="40" as="alternateBounds" />
          </mxGeometry>
        </mxCell>
        <mxCell id="qVDS9Y4xoa_HRoGHc8q_-277" value="&lt;b&gt;&lt;font style=&quot;font-size: 18px;&quot;&gt;Table of accesses&lt;/font&gt;&lt;/b&gt;" style="shape=partialRectangle;html=1;whiteSpace=wrap;connectable=0;strokeColor=inherit;overflow=hidden;fillColor=none;top=0;left=0;bottom=0;right=0;pointerEvents=1;fontSize=16;" parent="qVDS9Y4xoa_HRoGHc8q_-276" vertex="1" visible="0">
          <mxGeometry x="100" width="100" height="40" as="geometry">
            <mxRectangle width="100" height="40" as="alternateBounds" />
          </mxGeometry>
        </mxCell>
        <mxCell id="qVDS9Y4xoa_HRoGHc8q_-278" style="shape=partialRectangle;html=1;whiteSpace=wrap;connectable=0;strokeColor=inherit;overflow=hidden;fillColor=none;top=0;left=0;bottom=0;right=0;pointerEvents=1;fontSize=16;" parent="qVDS9Y4xoa_HRoGHc8q_-276" vertex="1" visible="0">
          <mxGeometry x="200" width="80" height="40" as="geometry">
            <mxRectangle width="80" height="40" as="alternateBounds" />
          </mxGeometry>
        </mxCell>
        <mxCell id="qVDS9Y4xoa_HRoGHc8q_-279" style="shape=partialRectangle;html=1;whiteSpace=wrap;connectable=0;strokeColor=inherit;overflow=hidden;fillColor=none;top=0;left=0;bottom=0;right=0;pointerEvents=1;fontSize=16;" parent="qVDS9Y4xoa_HRoGHc8q_-276" vertex="1" visible="0">
          <mxGeometry x="280" width="60" height="40" as="geometry">
            <mxRectangle width="60" height="40" as="alternateBounds" />
          </mxGeometry>
        </mxCell>
        <mxCell id="qVDS9Y4xoa_HRoGHc8q_-280" value="" style="shape=tableRow;horizontal=0;startSize=0;swimlaneHead=0;swimlaneBody=0;strokeColor=inherit;top=0;left=0;bottom=0;right=0;collapsible=0;dropTarget=0;fillColor=none;points=[[0,0.5],[1,0.5]];portConstraint=eastwest;fontSize=16;" parent="qVDS9Y4xoa_HRoGHc8q_-275" vertex="1">
          <mxGeometry y="40" width="340" height="30" as="geometry" />
        </mxCell>
        <mxCell id="qVDS9Y4xoa_HRoGHc8q_-317" value="&lt;b style=&quot;border-color: var(--border-color);&quot;&gt;Concept&lt;/b&gt;" style="shape=partialRectangle;html=1;whiteSpace=wrap;connectable=0;strokeColor=inherit;overflow=hidden;fillColor=none;top=0;left=0;bottom=0;right=0;pointerEvents=1;fontSize=16;" parent="qVDS9Y4xoa_HRoGHc8q_-280" vertex="1">
          <mxGeometry width="100" height="30" as="geometry">
            <mxRectangle width="100" height="30" as="alternateBounds" />
          </mxGeometry>
        </mxCell>
        <mxCell id="qVDS9Y4xoa_HRoGHc8q_-281" value="&lt;b&gt;Type&lt;/b&gt;" style="shape=partialRectangle;html=1;whiteSpace=wrap;connectable=0;strokeColor=inherit;overflow=hidden;fillColor=none;top=0;left=0;bottom=0;right=0;pointerEvents=1;fontSize=16;" parent="qVDS9Y4xoa_HRoGHc8q_-280" vertex="1">
          <mxGeometry x="100" width="100" height="30" as="geometry">
            <mxRectangle width="100" height="30" as="alternateBounds" />
          </mxGeometry>
        </mxCell>
        <mxCell id="qVDS9Y4xoa_HRoGHc8q_-282" value="&lt;b&gt;Accesses&lt;br&gt;&lt;/b&gt;" style="shape=partialRectangle;html=1;whiteSpace=wrap;connectable=0;strokeColor=inherit;overflow=hidden;fillColor=none;top=0;left=0;bottom=0;right=0;pointerEvents=1;fontSize=16;" parent="qVDS9Y4xoa_HRoGHc8q_-280" vertex="1">
          <mxGeometry x="200" width="80" height="30" as="geometry">
            <mxRectangle width="80" height="30" as="alternateBounds" />
          </mxGeometry>
        </mxCell>
        <mxCell id="qVDS9Y4xoa_HRoGHc8q_-283" value="&lt;b&gt;Type&lt;br&gt;&lt;/b&gt;" style="shape=partialRectangle;html=1;whiteSpace=wrap;connectable=0;strokeColor=inherit;overflow=hidden;fillColor=none;top=0;left=0;bottom=0;right=0;pointerEvents=1;fontSize=16;" parent="qVDS9Y4xoa_HRoGHc8q_-280" vertex="1">
          <mxGeometry x="280" width="60" height="30" as="geometry">
            <mxRectangle width="60" height="30" as="alternateBounds" />
          </mxGeometry>
        </mxCell>
        <mxCell id="qVDS9Y4xoa_HRoGHc8q_-284" value="" style="shape=tableRow;horizontal=0;startSize=0;swimlaneHead=0;swimlaneBody=0;strokeColor=inherit;top=0;left=0;bottom=0;right=0;collapsible=0;dropTarget=0;fillColor=none;points=[[0,0.5],[1,0.5]];portConstraint=eastwest;fontSize=16;" parent="qVDS9Y4xoa_HRoGHc8q_-275" vertex="1">
          <mxGeometry y="70" width="340" height="120" as="geometry" />
        </mxCell>
        <mxCell id="qVDS9Y4xoa_HRoGHc8q_-318" value="Comic book&lt;br&gt;Publishing&lt;br&gt;Editor&lt;br&gt;Starring&lt;br&gt;Character&lt;br&gt;Authoring&lt;br&gt;Writer&lt;br&gt;Artist" style="shape=partialRectangle;html=1;whiteSpace=wrap;connectable=0;strokeColor=inherit;overflow=hidden;fillColor=none;top=0;left=0;bottom=0;right=0;pointerEvents=1;fontSize=16;verticalAlign=middle;spacing=2;spacingTop=0;spacingBottom=0;align=left;rowspan=3;colspan=1;" parent="qVDS9Y4xoa_HRoGHc8q_-284" vertex="1">
          <mxGeometry width="100" height="200" as="geometry">
            <mxRectangle width="100" height="120" as="alternateBounds" />
          </mxGeometry>
        </mxCell>
        <mxCell id="qVDS9Y4xoa_HRoGHc8q_-285" value="Entity&lt;br&gt;Relationship&lt;br style=&quot;border-color: var(--border-color);&quot;&gt;Entity&lt;br style=&quot;border-color: var(--border-color);&quot;&gt;Relationship&lt;br style=&quot;border-color: var(--border-color);&quot;&gt;Entity&lt;br&gt;Relationship&lt;br&gt;Entity&lt;br&gt;Entity" style="shape=partialRectangle;html=1;whiteSpace=wrap;connectable=0;strokeColor=inherit;overflow=hidden;fillColor=none;top=0;left=0;bottom=0;right=0;pointerEvents=1;fontSize=16;rowspan=3;colspan=1;verticalAlign=middle;spacing=2;spacingTop=0;spacingBottom=0;align=left;" parent="qVDS9Y4xoa_HRoGHc8q_-284" vertex="1">
          <mxGeometry x="100" width="100" height="200" as="geometry">
            <mxRectangle width="100" height="120" as="alternateBounds" />
          </mxGeometry>
        </mxCell>
        <mxCell id="qVDS9Y4xoa_HRoGHc8q_-286" value="&lt;p style=&quot;line-height: 140%;&quot;&gt;1&lt;br style=&quot;border-color: var(--border-color); text-align: left;&quot;&gt;&lt;span style=&quot;text-align: left;&quot;&gt;1&lt;/span&gt;&lt;br style=&quot;border-color: var(--border-color); text-align: left;&quot;&gt;&lt;span style=&quot;text-align: left;&quot;&gt;1&lt;/span&gt;&lt;br style=&quot;border-color: var(--border-color); text-align: left;&quot;&gt;&lt;span style=&quot;text-align: left;&quot;&gt;1&lt;/span&gt;&lt;br style=&quot;border-color: var(--border-color); text-align: left;&quot;&gt;&lt;span style=&quot;text-align: left;&quot;&gt;3&lt;/span&gt;&lt;br style=&quot;border-color: var(--border-color); text-align: left;&quot;&gt;&lt;span style=&quot;text-align: left;&quot;&gt;2&lt;/span&gt;&lt;br style=&quot;border-color: var(--border-color); text-align: left;&quot;&gt;&lt;span style=&quot;text-align: left;&quot;&gt;1&lt;/span&gt;&lt;br style=&quot;border-color: var(--border-color); text-align: left;&quot;&gt;&lt;span style=&quot;text-align: left;&quot;&gt;1&lt;/span&gt;&lt;br&gt;&lt;/p&gt;" style="shape=partialRectangle;html=1;whiteSpace=wrap;connectable=0;strokeColor=inherit;overflow=hidden;fillColor=none;top=0;left=0;bottom=0;right=0;pointerEvents=1;fontSize=16;rowspan=3;colspan=1;" parent="qVDS9Y4xoa_HRoGHc8q_-284" vertex="1">
          <mxGeometry x="200" width="80" height="200" as="geometry">
            <mxRectangle width="80" height="120" as="alternateBounds" />
          </mxGeometry>
        </mxCell>
        <mxCell id="qVDS9Y4xoa_HRoGHc8q_-287" value="&lt;p style=&quot;line-height: 140%;&quot;&gt;W&lt;br style=&quot;border-color: var(--border-color); text-align: left;&quot;&gt;R&lt;br style=&quot;border-color: var(--border-color); text-align: left;&quot;&gt;&lt;span style=&quot;border-color: var(--border-color); text-align: left;&quot;&gt;W&lt;/span&gt;&lt;br style=&quot;border-color: var(--border-color); text-align: left;&quot;&gt;&lt;span style=&quot;border-color: var(--border-color); text-align: left;&quot;&gt;R&lt;/span&gt;&lt;br style=&quot;border-color: var(--border-color); text-align: left;&quot;&gt;&lt;span style=&quot;border-color: var(--border-color); text-align: left;&quot;&gt;W&lt;/span&gt;&lt;br style=&quot;border-color: var(--border-color); text-align: left;&quot;&gt;&lt;span style=&quot;border-color: var(--border-color); text-align: left;&quot;&gt;R&lt;/span&gt;&lt;br style=&quot;border-color: var(--border-color); text-align: left;&quot;&gt;&lt;span style=&quot;border-color: var(--border-color); text-align: left;&quot;&gt;W&lt;/span&gt;&lt;br style=&quot;border-color: var(--border-color); text-align: left;&quot;&gt;&lt;span style=&quot;border-color: var(--border-color); text-align: left;&quot;&gt;W&lt;/span&gt;&lt;br&gt;&lt;/p&gt;" style="shape=partialRectangle;html=1;whiteSpace=wrap;connectable=0;strokeColor=inherit;overflow=hidden;fillColor=none;top=0;left=0;bottom=0;right=0;pointerEvents=1;fontSize=16;rowspan=3;colspan=1;" parent="qVDS9Y4xoa_HRoGHc8q_-284" vertex="1">
          <mxGeometry x="280" width="60" height="200" as="geometry">
            <mxRectangle width="60" height="120" as="alternateBounds" />
          </mxGeometry>
        </mxCell>
        <mxCell id="qVDS9Y4xoa_HRoGHc8q_-288" value="" style="shape=tableRow;horizontal=0;startSize=0;swimlaneHead=0;swimlaneBody=0;strokeColor=inherit;top=0;left=0;bottom=0;right=0;collapsible=0;dropTarget=0;fillColor=none;points=[[0,0.5],[1,0.5]];portConstraint=eastwest;fontSize=16;" parent="qVDS9Y4xoa_HRoGHc8q_-275" vertex="1">
          <mxGeometry y="190" width="340" height="40" as="geometry" />
        </mxCell>
        <mxCell id="qVDS9Y4xoa_HRoGHc8q_-319" style="shape=partialRectangle;html=1;whiteSpace=wrap;connectable=0;strokeColor=inherit;overflow=hidden;fillColor=none;top=0;left=0;bottom=0;right=0;pointerEvents=1;fontSize=16;" parent="qVDS9Y4xoa_HRoGHc8q_-288" vertex="1" visible="0">
          <mxGeometry width="100" height="40" as="geometry">
            <mxRectangle width="100" height="40" as="alternateBounds" />
          </mxGeometry>
        </mxCell>
        <mxCell id="qVDS9Y4xoa_HRoGHc8q_-289" value="" style="shape=partialRectangle;html=1;whiteSpace=wrap;connectable=0;strokeColor=inherit;overflow=hidden;fillColor=none;top=0;left=0;bottom=0;right=0;pointerEvents=1;fontSize=16;" parent="qVDS9Y4xoa_HRoGHc8q_-288" vertex="1" visible="0">
          <mxGeometry x="100" width="100" height="40" as="geometry">
            <mxRectangle width="100" height="40" as="alternateBounds" />
          </mxGeometry>
        </mxCell>
        <mxCell id="qVDS9Y4xoa_HRoGHc8q_-290" value="" style="shape=partialRectangle;html=1;whiteSpace=wrap;connectable=0;strokeColor=inherit;overflow=hidden;fillColor=none;top=0;left=0;bottom=0;right=0;pointerEvents=1;fontSize=16;" parent="qVDS9Y4xoa_HRoGHc8q_-288" vertex="1" visible="0">
          <mxGeometry x="200" width="80" height="40" as="geometry">
            <mxRectangle width="80" height="40" as="alternateBounds" />
          </mxGeometry>
        </mxCell>
        <mxCell id="qVDS9Y4xoa_HRoGHc8q_-291" value="" style="shape=partialRectangle;html=1;whiteSpace=wrap;connectable=0;strokeColor=inherit;overflow=hidden;fillColor=none;top=0;left=0;bottom=0;right=0;pointerEvents=1;fontSize=16;" parent="qVDS9Y4xoa_HRoGHc8q_-288" vertex="1" visible="0">
          <mxGeometry x="280" width="60" height="40" as="geometry">
            <mxRectangle width="60" height="40" as="alternateBounds" />
          </mxGeometry>
        </mxCell>
        <mxCell id="qVDS9Y4xoa_HRoGHc8q_-292" style="shape=tableRow;horizontal=0;startSize=0;swimlaneHead=0;swimlaneBody=0;strokeColor=inherit;top=0;left=0;bottom=0;right=0;collapsible=0;dropTarget=0;fillColor=none;points=[[0,0.5],[1,0.5]];portConstraint=eastwest;fontSize=16;" parent="qVDS9Y4xoa_HRoGHc8q_-275" vertex="1">
          <mxGeometry y="230" width="340" height="40" as="geometry" />
        </mxCell>
        <mxCell id="qVDS9Y4xoa_HRoGHc8q_-320" style="shape=partialRectangle;html=1;whiteSpace=wrap;connectable=0;strokeColor=inherit;overflow=hidden;fillColor=none;top=0;left=0;bottom=0;right=0;pointerEvents=1;fontSize=16;" parent="qVDS9Y4xoa_HRoGHc8q_-292" vertex="1" visible="0">
          <mxGeometry width="100" height="40" as="geometry">
            <mxRectangle width="100" height="40" as="alternateBounds" />
          </mxGeometry>
        </mxCell>
        <mxCell id="qVDS9Y4xoa_HRoGHc8q_-293" style="shape=partialRectangle;html=1;whiteSpace=wrap;connectable=0;strokeColor=inherit;overflow=hidden;fillColor=none;top=0;left=0;bottom=0;right=0;pointerEvents=1;fontSize=16;" parent="qVDS9Y4xoa_HRoGHc8q_-292" vertex="1" visible="0">
          <mxGeometry x="100" width="100" height="40" as="geometry">
            <mxRectangle width="100" height="40" as="alternateBounds" />
          </mxGeometry>
        </mxCell>
        <mxCell id="qVDS9Y4xoa_HRoGHc8q_-294" style="shape=partialRectangle;html=1;whiteSpace=wrap;connectable=0;strokeColor=inherit;overflow=hidden;fillColor=none;top=0;left=0;bottom=0;right=0;pointerEvents=1;fontSize=16;" parent="qVDS9Y4xoa_HRoGHc8q_-292" vertex="1" visible="0">
          <mxGeometry x="200" width="80" height="40" as="geometry">
            <mxRectangle width="80" height="40" as="alternateBounds" />
          </mxGeometry>
        </mxCell>
        <mxCell id="qVDS9Y4xoa_HRoGHc8q_-295" style="shape=partialRectangle;html=1;whiteSpace=wrap;connectable=0;strokeColor=inherit;overflow=hidden;fillColor=none;top=0;left=0;bottom=0;right=0;pointerEvents=1;fontSize=16;" parent="qVDS9Y4xoa_HRoGHc8q_-292" vertex="1" visible="0">
          <mxGeometry x="280" width="60" height="40" as="geometry">
            <mxRectangle width="60" height="40" as="alternateBounds" />
          </mxGeometry>
        </mxCell>
        <mxCell id="qVDS9Y4xoa_HRoGHc8q_-321" style="edgeStyle=none;rounded=0;orthogonalLoop=1;jettySize=auto;html=1;exitX=0.75;exitY=0;exitDx=0;exitDy=0;startArrow=none;" parent="1" source="qVDS9Y4xoa_HRoGHc8q_-327" edge="1">
          <mxGeometry relative="1" as="geometry">
            <mxPoint x="-313.5" y="2484" as="targetPoint" />
          </mxGeometry>
        </mxCell>
        <mxCell id="qVDS9Y4xoa_HRoGHc8q_-322" style="edgeStyle=none;rounded=0;orthogonalLoop=1;jettySize=auto;html=1;exitX=0.25;exitY=0;exitDx=0;exitDy=0;" parent="1" source="qVDS9Y4xoa_HRoGHc8q_-323" edge="1">
          <mxGeometry relative="1" as="geometry">
            <mxPoint x="-373.5" y="2484" as="targetPoint" />
          </mxGeometry>
        </mxCell>
        <mxCell id="qVDS9Y4xoa_HRoGHc8q_-323" value="EDITOR" style="whiteSpace=wrap;html=1;align=center;shadow=0;sketch=0;fillStyle=solid;strokeColor=#330000;strokeWidth=1;fillColor=#FFFFFF;" parent="1" vertex="1">
          <mxGeometry x="-393.5" y="2544" width="100" height="40" as="geometry" />
        </mxCell>
        <mxCell id="qVDS9Y4xoa_HRoGHc8q_-324" value="WRITER" style="whiteSpace=wrap;html=1;align=center;shadow=0;sketch=0;fillStyle=solid;strokeColor=#330000;strokeWidth=1;fillColor=#FFFFFF;" parent="1" vertex="1">
          <mxGeometry x="-11" y="2544" width="100" height="40" as="geometry" />
        </mxCell>
        <mxCell id="qVDS9Y4xoa_HRoGHc8q_-325" value="name" style="text;html=1;align=center;verticalAlign=middle;resizable=0;points=[];autosize=1;strokeColor=none;fillColor=none;" parent="1" vertex="1">
          <mxGeometry x="-423.5" y="2450" width="50" height="30" as="geometry" />
        </mxCell>
        <mxCell id="qVDS9Y4xoa_HRoGHc8q_-326" value="" style="edgeStyle=none;rounded=0;orthogonalLoop=1;jettySize=auto;html=1;exitX=0.75;exitY=0;exitDx=0;exitDy=0;endArrow=none;" parent="1" source="qVDS9Y4xoa_HRoGHc8q_-323" target="qVDS9Y4xoa_HRoGHc8q_-327" edge="1">
          <mxGeometry relative="1" as="geometry">
            <mxPoint x="-313.5" y="2484" as="targetPoint" />
            <mxPoint x="-318.5" y="2544" as="sourcePoint" />
          </mxGeometry>
        </mxCell>
        <mxCell id="qVDS9Y4xoa_HRoGHc8q_-327" value="" style="ellipse;whiteSpace=wrap;html=1;fillColor=#FFFFFF;strokeColor=#330000;shadow=0;sketch=0;fillStyle=solid;strokeWidth=1;" parent="1" vertex="1">
          <mxGeometry x="-323.5" y="2474" width="20" height="20" as="geometry" />
        </mxCell>
        <mxCell id="qVDS9Y4xoa_HRoGHc8q_-328" value="" style="ellipse;whiteSpace=wrap;html=1;fillColor=#000000;strokeColor=#330000;shadow=0;sketch=0;fillStyle=solid;strokeWidth=1;" parent="1" vertex="1">
          <mxGeometry x="-383.5" y="2474" width="20" height="20" as="geometry" />
        </mxCell>
        <mxCell id="qVDS9Y4xoa_HRoGHc8q_-329" value="city" style="text;html=1;align=center;verticalAlign=middle;resizable=0;points=[];autosize=1;strokeColor=none;fillColor=none;" parent="1" vertex="1">
          <mxGeometry x="-308.5" y="2450" width="40" height="30" as="geometry" />
        </mxCell>
        <mxCell id="qVDS9Y4xoa_HRoGHc8q_-334" style="edgeStyle=none;rounded=0;orthogonalLoop=1;jettySize=auto;html=1;exitX=0.75;exitY=0;exitDx=0;exitDy=0;startArrow=none;" parent="1" source="qVDS9Y4xoa_HRoGHc8q_-338" edge="1">
          <mxGeometry relative="1" as="geometry">
            <mxPoint x="74" y="2484" as="targetPoint" />
          </mxGeometry>
        </mxCell>
        <mxCell id="qVDS9Y4xoa_HRoGHc8q_-335" style="edgeStyle=none;rounded=0;orthogonalLoop=1;jettySize=auto;html=1;exitX=0.25;exitY=0;exitDx=0;exitDy=0;" parent="1" edge="1">
          <mxGeometry relative="1" as="geometry">
            <mxPoint x="14" y="2484" as="targetPoint" />
            <mxPoint x="19" y="2544" as="sourcePoint" />
          </mxGeometry>
        </mxCell>
        <mxCell id="qVDS9Y4xoa_HRoGHc8q_-336" value="firstName" style="text;html=1;align=center;verticalAlign=middle;resizable=0;points=[];autosize=1;strokeColor=none;fillColor=none;" parent="1" vertex="1">
          <mxGeometry x="-46" y="2450" width="70" height="30" as="geometry" />
        </mxCell>
        <mxCell id="qVDS9Y4xoa_HRoGHc8q_-337" value="" style="edgeStyle=none;rounded=0;orthogonalLoop=1;jettySize=auto;html=1;exitX=0.75;exitY=0;exitDx=0;exitDy=0;endArrow=none;" parent="1" target="qVDS9Y4xoa_HRoGHc8q_-338" edge="1">
          <mxGeometry relative="1" as="geometry">
            <mxPoint x="74" y="2484" as="targetPoint" />
            <mxPoint x="69" y="2544" as="sourcePoint" />
          </mxGeometry>
        </mxCell>
        <mxCell id="qVDS9Y4xoa_HRoGHc8q_-338" value="" style="ellipse;whiteSpace=wrap;html=1;fillColor=#FFFFFF;strokeColor=#330000;shadow=0;sketch=0;fillStyle=solid;strokeWidth=1;" parent="1" vertex="1">
          <mxGeometry x="64" y="2474" width="20" height="20" as="geometry" />
        </mxCell>
        <mxCell id="qVDS9Y4xoa_HRoGHc8q_-339" value="" style="ellipse;whiteSpace=wrap;html=1;fillColor=#FFFFFF;strokeColor=#330000;shadow=0;sketch=0;fillStyle=solid;strokeWidth=1;" parent="1" vertex="1">
          <mxGeometry x="4" y="2474" width="20" height="20" as="geometry" />
        </mxCell>
        <mxCell id="qVDS9Y4xoa_HRoGHc8q_-340" value="" style="shape=waypoint;fillStyle=solid;size=6;pointerEvents=1;points=[];resizable=0;rotatable=0;perimeter=centerPerimeter;snapToPoint=1;strokeWidth=3;fillColor=none;strokeColor=default;perimeterSpacing=0;shadow=0;sketch=0;flipV=0;flipH=0;" parent="1" vertex="1">
          <mxGeometry x="7" y="2514" width="20" height="20" as="geometry" />
        </mxCell>
        <mxCell id="qVDS9Y4xoa_HRoGHc8q_-341" value="" style="shape=waypoint;fillStyle=solid;size=6;pointerEvents=1;points=[];resizable=0;rotatable=0;perimeter=centerPerimeter;snapToPoint=1;strokeWidth=3;fillColor=none;strokeColor=default;perimeterSpacing=0;shadow=0;sketch=0;flipV=0;flipH=0;" parent="1" vertex="1">
          <mxGeometry x="61" y="2514" width="20" height="20" as="geometry" />
        </mxCell>
        <mxCell id="qVDS9Y4xoa_HRoGHc8q_-342" value="" style="curved=1;endArrow=classic;html=1;rounded=0;entryX=0.574;entryY=0.321;entryDx=0;entryDy=0;entryPerimeter=0;exitX=0.574;exitY=0.321;exitDx=0;exitDy=0;exitPerimeter=0;" parent="1" edge="1">
          <mxGeometry width="50" height="50" relative="1" as="geometry">
            <mxPoint x="103.5" y="2529" as="sourcePoint" />
            <mxPoint x="-24" y="2534" as="targetPoint" />
            <Array as="points">
              <mxPoint x="6.25" y="2514" />
              <mxPoint x="-23.75" y="2534" />
            </Array>
          </mxGeometry>
        </mxCell>
        <mxCell id="qVDS9Y4xoa_HRoGHc8q_-343" value="" style="shape=waypoint;fillStyle=solid;size=6;pointerEvents=1;points=[];resizable=0;rotatable=0;perimeter=centerPerimeter;snapToPoint=1;strokeWidth=8;fillColor=none;strokeColor=default;perimeterSpacing=0;shadow=0;sketch=0;" parent="1" vertex="1">
          <mxGeometry x="-32.5" y="2521" width="20" height="20" as="geometry" />
        </mxCell>
        <mxCell id="qVDS9Y4xoa_HRoGHc8q_-344" value="lastName" style="text;html=1;align=center;verticalAlign=middle;resizable=0;points=[];autosize=1;strokeColor=none;fillColor=none;" parent="1" vertex="1">
          <mxGeometry x="74" y="2452" width="70" height="30" as="geometry" />
        </mxCell>
        <mxCell id="qVDS9Y4xoa_HRoGHc8q_-345" value="PUBLISHING" style="shape=rhombus;perimeter=rhombusPerimeter;whiteSpace=wrap;html=1;align=center;shadow=0;sketch=0;fillStyle=solid;strokeColor=#330000;strokeWidth=1;fillColor=#FFFFFF;" parent="1" vertex="1">
          <mxGeometry x="-398.5" y="2660" width="120" height="60" as="geometry" />
        </mxCell>
        <mxCell id="qVDS9Y4xoa_HRoGHc8q_-346" value="" style="endArrow=none;html=1;rounded=0;" parent="1" target="qVDS9Y4xoa_HRoGHc8q_-345" edge="1">
          <mxGeometry relative="1" as="geometry">
            <mxPoint x="-338.5" y="2584" as="sourcePoint" />
            <mxPoint x="-263.5" y="2584" as="targetPoint" />
          </mxGeometry>
        </mxCell>
        <mxCell id="qVDS9Y4xoa_HRoGHc8q_-347" value="(1, N)" style="resizable=0;html=1;align=left;verticalAlign=bottom;shadow=0;sketch=0;fillStyle=solid;strokeColor=#330000;strokeWidth=1;fillColor=#FFFFFF;" parent="qVDS9Y4xoa_HRoGHc8q_-346" connectable="0" vertex="1">
          <mxGeometry x="-1" relative="1" as="geometry">
            <mxPoint x="1" y="19" as="offset" />
          </mxGeometry>
        </mxCell>
        <mxCell id="qVDS9Y4xoa_HRoGHc8q_-348" value="COMIC BOOK" style="whiteSpace=wrap;html=1;align=center;shadow=0;sketch=0;fillStyle=solid;strokeColor=#330000;strokeWidth=1;fillColor=#FFFFFF;" parent="1" vertex="1">
          <mxGeometry x="-194" y="2670" width="100" height="40" as="geometry" />
        </mxCell>
        <mxCell id="qVDS9Y4xoa_HRoGHc8q_-349" value="" style="endArrow=none;html=1;rounded=0;" parent="1" edge="1">
          <mxGeometry relative="1" as="geometry">
            <mxPoint x="-279.5" y="2690" as="sourcePoint" />
            <mxPoint x="-194" y="2690" as="targetPoint" />
          </mxGeometry>
        </mxCell>
        <mxCell id="qVDS9Y4xoa_HRoGHc8q_-350" value="(1, 1)" style="resizable=0;html=1;align=left;verticalAlign=bottom;shadow=0;sketch=0;fillStyle=solid;strokeColor=#330000;strokeWidth=1;fillColor=#FFFFFF;" parent="qVDS9Y4xoa_HRoGHc8q_-349" connectable="0" vertex="1">
          <mxGeometry x="-1" relative="1" as="geometry">
            <mxPoint x="49" as="offset" />
          </mxGeometry>
        </mxCell>
        <mxCell id="qVDS9Y4xoa_HRoGHc8q_-357" value="ARTIST" style="whiteSpace=wrap;html=1;align=center;shadow=0;sketch=0;fillStyle=solid;strokeColor=#330000;strokeWidth=1;fillColor=#FFFFFF;" parent="1" vertex="1">
          <mxGeometry x="188.25" y="2670" width="100" height="40" as="geometry" />
        </mxCell>
        <mxCell id="qVDS9Y4xoa_HRoGHc8q_-358" value="AUTHORING" style="shape=rhombus;perimeter=rhombusPerimeter;whiteSpace=wrap;html=1;align=center;shadow=0;sketch=0;fillStyle=solid;strokeColor=#330000;strokeWidth=1;fillColor=#FFFFFF;" parent="1" vertex="1">
          <mxGeometry x="-16.75" y="2660" width="120" height="60" as="geometry" />
        </mxCell>
        <mxCell id="qVDS9Y4xoa_HRoGHc8q_-359" value="" style="endArrow=none;html=1;rounded=0;" parent="1" edge="1">
          <mxGeometry relative="1" as="geometry">
            <mxPoint x="-94.25" y="2690" as="sourcePoint" />
            <mxPoint x="-14.25" y="2690" as="targetPoint" />
          </mxGeometry>
        </mxCell>
        <mxCell id="qVDS9Y4xoa_HRoGHc8q_-360" value="(1, N)" style="resizable=0;html=1;align=left;verticalAlign=bottom;shadow=0;sketch=0;fillStyle=solid;strokeColor=#330000;strokeWidth=1;fillColor=#FFFFFF;" parent="qVDS9Y4xoa_HRoGHc8q_-359" connectable="0" vertex="1">
          <mxGeometry x="-1" relative="1" as="geometry">
            <mxPoint x="5" as="offset" />
          </mxGeometry>
        </mxCell>
        <mxCell id="qVDS9Y4xoa_HRoGHc8q_-361" value="" style="endArrow=none;html=1;rounded=0;" parent="1" edge="1">
          <mxGeometry relative="1" as="geometry">
            <mxPoint x="102.75" y="2690" as="sourcePoint" />
            <mxPoint x="188.25" y="2690" as="targetPoint" />
          </mxGeometry>
        </mxCell>
        <mxCell id="qVDS9Y4xoa_HRoGHc8q_-362" value="(1, N)" style="resizable=0;html=1;align=left;verticalAlign=bottom;shadow=0;sketch=0;fillStyle=solid;strokeColor=#330000;strokeWidth=1;fillColor=#FFFFFF;" parent="qVDS9Y4xoa_HRoGHc8q_-361" connectable="0" vertex="1">
          <mxGeometry x="-1" relative="1" as="geometry">
            <mxPoint x="47" as="offset" />
          </mxGeometry>
        </mxCell>
        <mxCell id="qVDS9Y4xoa_HRoGHc8q_-363" style="edgeStyle=none;rounded=0;orthogonalLoop=1;jettySize=auto;html=1;exitX=0.75;exitY=0;exitDx=0;exitDy=0;startArrow=none;" parent="1" source="qVDS9Y4xoa_HRoGHc8q_-367" edge="1">
          <mxGeometry relative="1" as="geometry">
            <mxPoint x="273.25" y="2610" as="targetPoint" />
          </mxGeometry>
        </mxCell>
        <mxCell id="qVDS9Y4xoa_HRoGHc8q_-364" style="edgeStyle=none;rounded=0;orthogonalLoop=1;jettySize=auto;html=1;exitX=0.25;exitY=0;exitDx=0;exitDy=0;" parent="1" edge="1">
          <mxGeometry relative="1" as="geometry">
            <mxPoint x="213.25" y="2610" as="targetPoint" />
            <mxPoint x="218.25" y="2670" as="sourcePoint" />
          </mxGeometry>
        </mxCell>
        <mxCell id="qVDS9Y4xoa_HRoGHc8q_-365" value="firstName" style="text;html=1;align=center;verticalAlign=middle;resizable=0;points=[];autosize=1;strokeColor=none;fillColor=none;" parent="1" vertex="1">
          <mxGeometry x="156.25" y="2576" width="70" height="30" as="geometry" />
        </mxCell>
        <mxCell id="qVDS9Y4xoa_HRoGHc8q_-366" value="" style="edgeStyle=none;rounded=0;orthogonalLoop=1;jettySize=auto;html=1;exitX=0.75;exitY=0;exitDx=0;exitDy=0;endArrow=none;" parent="1" target="qVDS9Y4xoa_HRoGHc8q_-367" edge="1">
          <mxGeometry relative="1" as="geometry">
            <mxPoint x="273.25" y="2610" as="targetPoint" />
            <mxPoint x="268.25" y="2670" as="sourcePoint" />
          </mxGeometry>
        </mxCell>
        <mxCell id="qVDS9Y4xoa_HRoGHc8q_-367" value="" style="ellipse;whiteSpace=wrap;html=1;fillColor=#FFFFFF;strokeColor=#330000;shadow=0;sketch=0;fillStyle=solid;strokeWidth=1;" parent="1" vertex="1">
          <mxGeometry x="263.25" y="2600" width="20" height="20" as="geometry" />
        </mxCell>
        <mxCell id="qVDS9Y4xoa_HRoGHc8q_-368" value="" style="ellipse;whiteSpace=wrap;html=1;fillColor=#FFFFFF;strokeColor=#330000;shadow=0;sketch=0;fillStyle=solid;strokeWidth=1;" parent="1" vertex="1">
          <mxGeometry x="203.25" y="2600" width="20" height="20" as="geometry" />
        </mxCell>
        <mxCell id="qVDS9Y4xoa_HRoGHc8q_-369" value="" style="shape=waypoint;fillStyle=solid;size=6;pointerEvents=1;points=[];resizable=0;rotatable=0;perimeter=centerPerimeter;snapToPoint=1;strokeWidth=3;fillColor=none;strokeColor=default;perimeterSpacing=0;shadow=0;sketch=0;flipV=0;flipH=0;" parent="1" vertex="1">
          <mxGeometry x="206.25" y="2640" width="20" height="20" as="geometry" />
        </mxCell>
        <mxCell id="qVDS9Y4xoa_HRoGHc8q_-370" value="" style="shape=waypoint;fillStyle=solid;size=6;pointerEvents=1;points=[];resizable=0;rotatable=0;perimeter=centerPerimeter;snapToPoint=1;strokeWidth=3;fillColor=none;strokeColor=default;perimeterSpacing=0;shadow=0;sketch=0;flipV=0;flipH=0;" parent="1" vertex="1">
          <mxGeometry x="260.25" y="2640" width="20" height="20" as="geometry" />
        </mxCell>
        <mxCell id="qVDS9Y4xoa_HRoGHc8q_-371" value="" style="curved=1;endArrow=classic;html=1;rounded=0;entryX=0.574;entryY=0.321;entryDx=0;entryDy=0;entryPerimeter=0;" parent="1" target="qVDS9Y4xoa_HRoGHc8q_-372" edge="1">
          <mxGeometry width="50" height="50" relative="1" as="geometry">
            <mxPoint x="188.25" y="2660" as="sourcePoint" />
            <mxPoint x="318.5" y="2640" as="targetPoint" />
            <Array as="points">
              <mxPoint x="188.5" y="2660" />
              <mxPoint x="218.5" y="2640" />
            </Array>
          </mxGeometry>
        </mxCell>
        <mxCell id="qVDS9Y4xoa_HRoGHc8q_-372" value="" style="shape=waypoint;fillStyle=solid;size=6;pointerEvents=1;points=[];resizable=0;rotatable=0;perimeter=centerPerimeter;snapToPoint=1;strokeWidth=8;fillColor=none;strokeColor=default;perimeterSpacing=0;shadow=0;sketch=0;" parent="1" vertex="1">
          <mxGeometry x="305.75" y="2645" width="20" height="20" as="geometry" />
        </mxCell>
        <mxCell id="qVDS9Y4xoa_HRoGHc8q_-373" value="lastName" style="text;html=1;align=center;verticalAlign=middle;resizable=0;points=[];autosize=1;strokeColor=none;fillColor=none;" parent="1" vertex="1">
          <mxGeometry x="276.25" y="2578" width="70" height="30" as="geometry" />
        </mxCell>
        <mxCell id="qVDS9Y4xoa_HRoGHc8q_-374" value="" style="endArrow=none;html=1;rounded=0;" parent="1" edge="1">
          <mxGeometry width="50" height="50" relative="1" as="geometry">
            <mxPoint x="251.75" y="2711" as="sourcePoint" />
            <mxPoint x="275.75" y="2760" as="targetPoint" />
          </mxGeometry>
        </mxCell>
        <mxCell id="qVDS9Y4xoa_HRoGHc8q_-375" value="" style="ellipse;whiteSpace=wrap;html=1;aspect=fixed;shadow=0;sketch=0;fillStyle=solid;strokeColor=#330000;strokeWidth=1;fillColor=#FFFFFF;" parent="1" vertex="1">
          <mxGeometry x="267.25" y="2760" width="20" height="20" as="geometry" />
        </mxCell>
        <mxCell id="qVDS9Y4xoa_HRoGHc8q_-376" value="" style="endArrow=none;html=1;rounded=0;" parent="1" edge="1">
          <mxGeometry relative="1" as="geometry">
            <mxPoint x="42.659999999999854" y="2584" as="sourcePoint" />
            <mxPoint x="42.659999999999854" y="2660" as="targetPoint" />
          </mxGeometry>
        </mxCell>
        <mxCell id="qVDS9Y4xoa_HRoGHc8q_-377" value="(1, N)" style="resizable=0;html=1;align=left;verticalAlign=bottom;shadow=0;sketch=0;fillStyle=solid;strokeColor=#330000;strokeWidth=1;fillColor=#FFFFFF;" parent="qVDS9Y4xoa_HRoGHc8q_-376" connectable="0" vertex="1">
          <mxGeometry x="-1" relative="1" as="geometry">
            <mxPoint x="1" y="19" as="offset" />
          </mxGeometry>
        </mxCell>
        <mxCell id="qVDS9Y4xoa_HRoGHc8q_-378" value="pseudonym" style="text;html=1;align=center;verticalAlign=middle;resizable=0;points=[];autosize=1;strokeColor=none;fillColor=none;" parent="1" vertex="1">
          <mxGeometry x="274.25" y="2763" width="90" height="30" as="geometry" />
        </mxCell>
        <mxCell id="qVDS9Y4xoa_HRoGHc8q_-379" value="" style="endArrow=none;html=1;rounded=0;" parent="1" edge="1">
          <mxGeometry width="50" height="50" relative="1" as="geometry">
            <mxPoint x="90" y="2565" as="sourcePoint" />
            <mxPoint x="140" y="2550" as="targetPoint" />
          </mxGeometry>
        </mxCell>
        <mxCell id="qVDS9Y4xoa_HRoGHc8q_-380" value="" style="ellipse;whiteSpace=wrap;html=1;aspect=fixed;shadow=0;sketch=0;fillStyle=solid;strokeColor=#330000;strokeWidth=1;fillColor=#FFFFFF;flipV=1;" parent="1" vertex="1">
          <mxGeometry x="138.25" y="2537" width="20" height="20" as="geometry" />
        </mxCell>
        <mxCell id="qVDS9Y4xoa_HRoGHc8q_-381" value="pseudonym" style="text;html=1;align=center;verticalAlign=middle;resizable=0;points=[];autosize=1;strokeColor=none;fillColor=none;flipV=1;" parent="1" vertex="1">
          <mxGeometry x="131.25" y="2514" width="90" height="30" as="geometry" />
        </mxCell>
        <mxCell id="qVDS9Y4xoa_HRoGHc8q_-382" value="" style="endArrow=none;html=1;rounded=0;" parent="1" edge="1">
          <mxGeometry relative="1" as="geometry">
            <mxPoint x="-144.59000000000015" y="2792" as="sourcePoint" />
            <mxPoint x="-144.59000000000015" y="2710" as="targetPoint" />
          </mxGeometry>
        </mxCell>
        <mxCell id="qVDS9Y4xoa_HRoGHc8q_-383" value="(1, N)" style="resizable=0;html=1;align=left;verticalAlign=bottom;shadow=0;sketch=0;fillStyle=solid;strokeColor=#330000;strokeWidth=1;fillColor=#FFFFFF;" parent="qVDS9Y4xoa_HRoGHc8q_-382" connectable="0" vertex="1">
          <mxGeometry x="-1" relative="1" as="geometry">
            <mxPoint x="1" y="-59" as="offset" />
          </mxGeometry>
        </mxCell>
        <mxCell id="qVDS9Y4xoa_HRoGHc8q_-384" value="STARRING" style="shape=rhombus;perimeter=rhombusPerimeter;whiteSpace=wrap;html=1;align=center;shadow=0;sketch=0;fillStyle=solid;strokeColor=#330000;strokeWidth=1;fillColor=#FFFFFF;" parent="1" vertex="1">
          <mxGeometry x="-205" y="2793" width="120" height="60" as="geometry" />
        </mxCell>
        <mxCell id="qVDS9Y4xoa_HRoGHc8q_-385" value="" style="endArrow=none;html=1;rounded=0;" parent="1" edge="1">
          <mxGeometry relative="1" as="geometry">
            <mxPoint x="-144.59000000000015" y="2935" as="sourcePoint" />
            <mxPoint x="-144.59000000000015" y="2853" as="targetPoint" />
          </mxGeometry>
        </mxCell>
        <mxCell id="qVDS9Y4xoa_HRoGHc8q_-386" value="(1, N)" style="resizable=0;html=1;align=left;verticalAlign=bottom;shadow=0;sketch=0;fillStyle=solid;strokeColor=#330000;strokeWidth=1;fillColor=#FFFFFF;" parent="qVDS9Y4xoa_HRoGHc8q_-385" connectable="0" vertex="1">
          <mxGeometry x="-1" relative="1" as="geometry">
            <mxPoint x="1" y="-2" as="offset" />
          </mxGeometry>
        </mxCell>
        <mxCell id="qVDS9Y4xoa_HRoGHc8q_-387" value="CHARACTER" style="whiteSpace=wrap;html=1;align=center;shadow=0;sketch=0;fillStyle=solid;strokeColor=#330000;strokeWidth=1;fillColor=#FFFFFF;" parent="1" vertex="1">
          <mxGeometry x="-194" y="2936" width="100" height="40" as="geometry" />
        </mxCell>
        <mxCell id="qVDS9Y4xoa_HRoGHc8q_-397" value="firstName" style="text;html=1;align=center;verticalAlign=middle;resizable=0;points=[];autosize=1;strokeColor=none;fillColor=none;" parent="1" vertex="1">
          <mxGeometry x="-90.5" y="2850" width="70" height="30" as="geometry" />
        </mxCell>
        <mxCell id="qVDS9Y4xoa_HRoGHc8q_-398" value="" style="edgeStyle=none;rounded=0;orthogonalLoop=1;jettySize=auto;html=1;exitX=0.75;exitY=0;exitDx=0;exitDy=0;endArrow=none;" parent="1" edge="1">
          <mxGeometry relative="1" as="geometry">
            <mxPoint x="-92.83045479853718" y="2885.9654575824497" as="targetPoint" />
            <mxPoint x="-97" y="2936" as="sourcePoint" />
          </mxGeometry>
        </mxCell>
        <mxCell id="qVDS9Y4xoa_HRoGHc8q_-399" value="" style="ellipse;whiteSpace=wrap;html=1;fillColor=#FFFFFF;strokeColor=#330000;shadow=0;sketch=0;fillStyle=solid;strokeWidth=1;" parent="1" vertex="1">
          <mxGeometry x="-28" y="2908" width="20" height="20" as="geometry" />
        </mxCell>
        <mxCell id="qVDS9Y4xoa_HRoGHc8q_-400" value="" style="ellipse;whiteSpace=wrap;html=1;fillColor=#FFFFFF;strokeColor=#330000;shadow=0;sketch=0;fillStyle=solid;strokeWidth=1;" parent="1" vertex="1">
          <mxGeometry x="-103" y="2866" width="20" height="20" as="geometry" />
        </mxCell>
        <mxCell id="qVDS9Y4xoa_HRoGHc8q_-405" value="lastName" style="text;html=1;align=center;verticalAlign=middle;resizable=0;points=[];autosize=1;strokeColor=none;fillColor=none;" parent="1" vertex="1">
          <mxGeometry x="-18" y="2889" width="70" height="30" as="geometry" />
        </mxCell>
        <mxCell id="qVDS9Y4xoa_HRoGHc8q_-406" value="" style="edgeStyle=none;rounded=0;orthogonalLoop=1;jettySize=auto;html=1;exitX=0.75;exitY=0;exitDx=0;exitDy=0;endArrow=none;" parent="1" edge="1">
          <mxGeometry relative="1" as="geometry">
            <mxPoint x="-28" y="2920" as="targetPoint" />
            <mxPoint x="-94" y="2946" as="sourcePoint" />
          </mxGeometry>
        </mxCell>
        <mxCell id="qVDS9Y4xoa_HRoGHc8q_-407" value="" style="endArrow=none;html=1;rounded=0;" parent="1" edge="1">
          <mxGeometry width="50" height="50" relative="1" as="geometry">
            <mxPoint x="-174" y="2936" as="sourcePoint" />
            <mxPoint x="-218" y="2885" as="targetPoint" />
          </mxGeometry>
        </mxCell>
        <mxCell id="qVDS9Y4xoa_HRoGHc8q_-408" value="" style="ellipse;whiteSpace=wrap;html=1;fillColor=#000000;strokeColor=#330000;shadow=0;sketch=0;fillStyle=solid;strokeWidth=1;" parent="1" vertex="1">
          <mxGeometry x="-233" y="2866" width="20" height="20" as="geometry" />
        </mxCell>
        <mxCell id="qVDS9Y4xoa_HRoGHc8q_-409" value="pseudonym" style="text;html=1;align=center;verticalAlign=middle;resizable=0;points=[];autosize=1;strokeColor=none;fillColor=none;flipV=1;" parent="1" vertex="1">
          <mxGeometry x="-312" y="2851" width="90" height="30" as="geometry" />
        </mxCell>
        <mxCell id="qVDS9Y4xoa_HRoGHc8q_-410" value="" style="endArrow=none;html=1;rounded=0;" parent="1" edge="1">
          <mxGeometry width="50" height="50" relative="1" as="geometry">
            <mxPoint x="-172" y="2806" as="sourcePoint" />
            <mxPoint x="-208" y="2760" as="targetPoint" />
          </mxGeometry>
        </mxCell>
        <mxCell id="qVDS9Y4xoa_HRoGHc8q_-411" value="" style="endArrow=none;html=1;rounded=0;" parent="1" edge="1">
          <mxGeometry width="50" height="50" relative="1" as="geometry">
            <mxPoint x="-83" y="2760" as="sourcePoint" />
            <mxPoint x="-119" y="2806" as="targetPoint" />
          </mxGeometry>
        </mxCell>
        <mxCell id="qVDS9Y4xoa_HRoGHc8q_-412" value="" style="ellipse;whiteSpace=wrap;html=1;fillColor=#FFFFFF;strokeColor=#330000;shadow=0;sketch=0;fillStyle=solid;strokeWidth=1;" parent="1" vertex="1">
          <mxGeometry x="-91" y="2743" width="20" height="20" as="geometry" />
        </mxCell>
        <mxCell id="qVDS9Y4xoa_HRoGHc8q_-413" value="" style="ellipse;whiteSpace=wrap;html=1;fillColor=#FFFFFF;strokeColor=#330000;shadow=0;sketch=0;fillStyle=solid;strokeWidth=1;" parent="1" vertex="1">
          <mxGeometry x="-218" y="2743" width="20" height="20" as="geometry" />
        </mxCell>
        <mxCell id="qVDS9Y4xoa_HRoGHc8q_-414" value="city" style="text;html=1;align=center;verticalAlign=middle;resizable=0;points=[];autosize=1;strokeColor=none;fillColor=none;" parent="1" vertex="1">
          <mxGeometry x="-251.5" y="2730" width="40" height="30" as="geometry" />
        </mxCell>
        <mxCell id="qVDS9Y4xoa_HRoGHc8q_-415" value="state" style="text;html=1;align=center;verticalAlign=middle;resizable=0;points=[];autosize=1;strokeColor=none;fillColor=none;" parent="1" vertex="1">
          <mxGeometry x="-81.5" y="2730" width="50" height="30" as="geometry" />
        </mxCell>
        <mxCell id="qVDS9Y4xoa_HRoGHc8q_-416" value="" style="endArrow=classic;html=1;rounded=0;fontSize=14;strokeWidth=3;" parent="1" edge="1">
          <mxGeometry width="50" height="50" relative="1" as="geometry">
            <mxPoint x="-338" y="2890" as="sourcePoint" />
            <mxPoint x="-338" y="2770" as="targetPoint" />
          </mxGeometry>
        </mxCell>
        <mxCell id="qVDS9Y4xoa_HRoGHc8q_-417" value="" style="endArrow=classic;html=1;rounded=0;fontSize=14;strokeWidth=3;" parent="1" edge="1">
          <mxGeometry width="50" height="50" relative="1" as="geometry">
            <mxPoint x="-238" y="2570" as="sourcePoint" />
            <mxPoint x="-118" y="2570" as="targetPoint" />
          </mxGeometry>
        </mxCell>
        <mxCell id="qVDS9Y4xoa_HRoGHc8q_-418" value="" style="endArrow=classic;html=1;rounded=0;fontSize=14;strokeWidth=3;" parent="1" edge="1">
          <mxGeometry width="50" height="50" relative="1" as="geometry">
            <mxPoint x="162" y="2760" as="sourcePoint" />
            <mxPoint x="42" y="2760" as="targetPoint" />
          </mxGeometry>
        </mxCell>
        <mxCell id="qVDS9Y4xoa_HRoGHc8q_-420" value="" style="endArrow=none;html=1;rounded=0;entryX=1;entryY=0.5;entryDx=0;entryDy=0;" parent="1" target="qVDS9Y4xoa_HRoGHc8q_-421" edge="1">
          <mxGeometry width="50" height="50" relative="1" as="geometry">
            <mxPoint x="-204" y="2823" as="sourcePoint" />
            <mxPoint x="-248" y="2874" as="targetPoint" />
          </mxGeometry>
        </mxCell>
        <mxCell id="qVDS9Y4xoa_HRoGHc8q_-421" value="" style="ellipse;whiteSpace=wrap;html=1;fillColor=#FFFFFF;strokeColor=#330000;shadow=0;sketch=0;fillStyle=solid;strokeWidth=1;flipV=1;flipH=0;direction=west;" parent="1" vertex="1">
          <mxGeometry x="-288.5" y="2796" width="20" height="20" as="geometry" />
        </mxCell>
        <mxCell id="qVDS9Y4xoa_HRoGHc8q_-422" value="role" style="text;html=1;align=center;verticalAlign=middle;resizable=0;points=[];autosize=1;strokeColor=none;fillColor=none;flipV=1;" parent="1" vertex="1">
          <mxGeometry x="-310" y="2772" width="40" height="30" as="geometry" />
        </mxCell>
        <mxCell id="qVDS9Y4xoa_HRoGHc8q_-423" value="In restructuring, the generalisation is removed&amp;nbsp;&lt;br&gt;by collapsing the child entities into the parent entity, &lt;br&gt;and an attribute is added (to the starring relationship) to &lt;br&gt;denote&amp;nbsp;the role&amp;nbsp;that&amp;nbsp;the character plays in the comic book" style="text;html=1;align=center;verticalAlign=middle;resizable=0;points=[];autosize=1;strokeColor=none;fillColor=none;fontSize=14;" parent="1" vertex="1">
          <mxGeometry x="-830" y="2880" width="380" height="80" as="geometry" />
        </mxCell>
        <mxCell id="qVDS9Y4xoa_HRoGHc8q_-425" value="&lt;p style=&quot;line-height: 140%;&quot;&gt;CHARACTER(firstName, lastName, &lt;u&gt;pseudonym&lt;/u&gt;)&lt;br&gt;COMIC BOOK(&lt;u&gt;series&lt;/u&gt;, &lt;u&gt;issueNumber&lt;/u&gt;,&amp;nbsp;coverTitle)&lt;br&gt;STARRING(&lt;u&gt;comic_book&lt;/u&gt;,&amp;nbsp;&lt;u&gt;issue&lt;/u&gt;, &lt;u&gt;character&lt;/u&gt;, role, city, state)&lt;br&gt;EDITOR(&lt;u&gt;name&lt;/u&gt;, city)&lt;br&gt;PUBLISHING(&lt;u&gt;editor&lt;/u&gt;, &lt;u&gt;comic_book&lt;/u&gt;,&amp;nbsp;&lt;u&gt;issue&lt;/u&gt;)&lt;br&gt;WRITER(&lt;u style=&quot;border-color: var(--border-color);&quot;&gt;firstName&lt;/u&gt;,&amp;nbsp;&lt;u style=&quot;border-color: var(--border-color);&quot;&gt;lastName&lt;/u&gt;, pseudonym)&lt;br&gt;ARTIST(&lt;u style=&quot;border-color: var(--border-color);&quot;&gt;firstName&lt;/u&gt;,&amp;nbsp;&lt;u style=&quot;border-color: var(--border-color);&quot;&gt;lastName&lt;/u&gt;, pseudonym)&lt;br&gt;AUTHORING(&lt;u&gt;writerFirstName&lt;/u&gt;,&amp;nbsp;&lt;u&gt;writerLastName&lt;/u&gt;, &lt;u&gt;artistFirstName&lt;/u&gt;, &lt;u&gt;artistLastName&lt;/u&gt;, &lt;u&gt;comicBookSeries&lt;/u&gt;, &lt;u&gt;comicBookNumber&lt;/u&gt;)&lt;/p&gt;" style="text;html=1;align=center;verticalAlign=middle;resizable=0;points=[];autosize=1;strokeColor=none;fillColor=none;fontSize=14;" parent="1" vertex="1">
          <mxGeometry x="-377" y="3080" width="770" height="200" as="geometry" />
        </mxCell>
        <mxCell id="qVDS9Y4xoa_HRoGHc8q_-426" value="&lt;b&gt;RELATIONAL SCHEMA&lt;/b&gt;" style="text;html=1;align=center;verticalAlign=middle;resizable=0;points=[];autosize=1;strokeColor=none;fillColor=none;fontSize=14;" parent="1" vertex="1">
          <mxGeometry x="-87" y="3068" width="180" height="30" as="geometry" />
        </mxCell>
        <mxCell id="lyzOp8XXJ4mlaxMT_ynC-1" value="" style="shape=table;startSize=0;container=1;collapsible=0;childLayout=tableLayout;fontSize=16;" parent="1" vertex="1">
          <mxGeometry x="-561" y="2200" width="400" height="210" as="geometry" />
        </mxCell>
        <mxCell id="lyzOp8XXJ4mlaxMT_ynC-2" style="shape=tableRow;horizontal=0;startSize=0;swimlaneHead=0;swimlaneBody=0;strokeColor=inherit;top=0;left=0;bottom=0;right=0;collapsible=0;dropTarget=0;fillColor=none;points=[[0,0.5],[1,0.5]];portConstraint=eastwest;fontSize=16;" parent="lyzOp8XXJ4mlaxMT_ynC-1" vertex="1">
          <mxGeometry width="400" height="40" as="geometry" />
        </mxCell>
        <mxCell id="lyzOp8XXJ4mlaxMT_ynC-3" value="&lt;b&gt;&lt;font style=&quot;font-size: 18px;&quot;&gt;Legend of operations&lt;/font&gt;&lt;/b&gt;" style="shape=partialRectangle;html=1;whiteSpace=wrap;connectable=0;strokeColor=inherit;overflow=hidden;fillColor=none;top=0;left=0;bottom=0;right=0;pointerEvents=1;fontSize=16;rowspan=1;colspan=3;" parent="lyzOp8XXJ4mlaxMT_ynC-2" vertex="1">
          <mxGeometry width="400" height="40" as="geometry">
            <mxRectangle width="100" height="40" as="alternateBounds" />
          </mxGeometry>
        </mxCell>
        <mxCell id="lyzOp8XXJ4mlaxMT_ynC-4" style="shape=partialRectangle;html=1;whiteSpace=wrap;connectable=0;strokeColor=inherit;overflow=hidden;fillColor=none;top=0;left=0;bottom=0;right=0;pointerEvents=1;fontSize=16;" parent="lyzOp8XXJ4mlaxMT_ynC-2" vertex="1" visible="0">
          <mxGeometry x="100" width="199" height="40" as="geometry">
            <mxRectangle width="199" height="40" as="alternateBounds" />
          </mxGeometry>
        </mxCell>
        <mxCell id="lyzOp8XXJ4mlaxMT_ynC-5" style="shape=partialRectangle;html=1;whiteSpace=wrap;connectable=0;strokeColor=inherit;overflow=hidden;fillColor=none;top=0;left=0;bottom=0;right=0;pointerEvents=1;fontSize=16;" parent="lyzOp8XXJ4mlaxMT_ynC-2" vertex="1" visible="0">
          <mxGeometry x="299" width="101" height="40" as="geometry">
            <mxRectangle width="101" height="40" as="alternateBounds" />
          </mxGeometry>
        </mxCell>
        <mxCell id="lyzOp8XXJ4mlaxMT_ynC-6" value="" style="shape=tableRow;horizontal=0;startSize=0;swimlaneHead=0;swimlaneBody=0;strokeColor=inherit;top=0;left=0;bottom=0;right=0;collapsible=0;dropTarget=0;fillColor=none;points=[[0,0.5],[1,0.5]];portConstraint=eastwest;fontSize=16;" parent="lyzOp8XXJ4mlaxMT_ynC-1" vertex="1">
          <mxGeometry y="40" width="400" height="30" as="geometry" />
        </mxCell>
        <mxCell id="lyzOp8XXJ4mlaxMT_ynC-7" value="&lt;b&gt;Operation&lt;/b&gt;" style="shape=partialRectangle;html=1;whiteSpace=wrap;connectable=0;strokeColor=inherit;overflow=hidden;fillColor=none;top=0;left=0;bottom=0;right=0;pointerEvents=1;fontSize=16;" parent="lyzOp8XXJ4mlaxMT_ynC-6" vertex="1">
          <mxGeometry width="100" height="30" as="geometry">
            <mxRectangle width="100" height="30" as="alternateBounds" />
          </mxGeometry>
        </mxCell>
        <mxCell id="lyzOp8XXJ4mlaxMT_ynC-8" value="&lt;b&gt;Description&lt;/b&gt;" style="shape=partialRectangle;html=1;whiteSpace=wrap;connectable=0;strokeColor=inherit;overflow=hidden;fillColor=none;top=0;left=0;bottom=0;right=0;pointerEvents=1;fontSize=16;rowspan=1;colspan=2;" parent="lyzOp8XXJ4mlaxMT_ynC-6" vertex="1">
          <mxGeometry x="100" width="300" height="30" as="geometry">
            <mxRectangle width="199" height="30" as="alternateBounds" />
          </mxGeometry>
        </mxCell>
        <mxCell id="lyzOp8XXJ4mlaxMT_ynC-9" value="&lt;b&gt;Frequency&lt;/b&gt;" style="shape=partialRectangle;html=1;whiteSpace=wrap;connectable=0;strokeColor=inherit;overflow=hidden;fillColor=none;top=0;left=0;bottom=0;right=0;pointerEvents=1;fontSize=16;" parent="lyzOp8XXJ4mlaxMT_ynC-6" vertex="1" visible="0">
          <mxGeometry x="299" width="101" height="30" as="geometry">
            <mxRectangle width="101" height="30" as="alternateBounds" />
          </mxGeometry>
        </mxCell>
        <mxCell id="lyzOp8XXJ4mlaxMT_ynC-10" value="" style="shape=tableRow;horizontal=0;startSize=0;swimlaneHead=0;swimlaneBody=0;strokeColor=inherit;top=0;left=0;bottom=0;right=0;collapsible=0;dropTarget=0;fillColor=none;points=[[0,0.5],[1,0.5]];portConstraint=eastwest;fontSize=16;" parent="lyzOp8XXJ4mlaxMT_ynC-1" vertex="1">
          <mxGeometry y="70" width="400" height="60" as="geometry" />
        </mxCell>
        <mxCell id="lyzOp8XXJ4mlaxMT_ynC-11" value="Op. 1&lt;br&gt;Op. 2&lt;br&gt;Op. 3&lt;br&gt;Op. 4&lt;br&gt;Op. 5&lt;br&gt;Op. 6&lt;br&gt;" style="shape=partialRectangle;connectable=0;strokeColor=inherit;overflow=hidden;fillColor=none;top=0;left=0;bottom=0;right=0;pointerEvents=1;fontSize=16;rowspan=3;colspan=1;verticalAlign=middle;spacing=2;spacingTop=0;spacingBottom=0;align=left;whiteSpace=wrap;html=1;" parent="lyzOp8XXJ4mlaxMT_ynC-10" vertex="1">
          <mxGeometry width="100" height="140" as="geometry">
            <mxRectangle width="100" height="60" as="alternateBounds" />
          </mxGeometry>
        </mxCell>
        <mxCell id="lyzOp8XXJ4mlaxMT_ynC-12" value="Insert a new issue of the comic book&lt;br&gt;I&lt;br&gt;I&lt;br&gt;B&lt;br&gt;B&lt;br&gt;B" style="shape=partialRectangle;connectable=0;strokeColor=inherit;overflow=hidden;fillColor=none;top=0;left=0;bottom=0;right=0;pointerEvents=1;fontSize=16;rowspan=3;colspan=2;verticalAlign=middle;whiteSpace=wrap;html=1;" parent="lyzOp8XXJ4mlaxMT_ynC-10" vertex="1">
          <mxGeometry x="100" width="300" height="140" as="geometry">
            <mxRectangle width="199" height="60" as="alternateBounds" />
          </mxGeometry>
        </mxCell>
        <mxCell id="lyzOp8XXJ4mlaxMT_ynC-13" value="&lt;p style=&quot;line-height: 140%;&quot;&gt;5 per month&lt;br&gt;2 per month&lt;br&gt;1 per month&lt;br&gt;1 per week&lt;br&gt;1 per month&lt;br&gt;1 per year&lt;/p&gt;" style="shape=partialRectangle;html=1;whiteSpace=wrap;connectable=0;strokeColor=inherit;overflow=hidden;fillColor=none;top=0;left=0;bottom=0;right=0;pointerEvents=1;fontSize=16;" parent="lyzOp8XXJ4mlaxMT_ynC-10" vertex="1" visible="0">
          <mxGeometry x="299" width="101" height="60" as="geometry">
            <mxRectangle width="101" height="60" as="alternateBounds" />
          </mxGeometry>
        </mxCell>
        <mxCell id="lyzOp8XXJ4mlaxMT_ynC-14" value="" style="shape=tableRow;horizontal=0;startSize=0;swimlaneHead=0;swimlaneBody=0;strokeColor=inherit;top=0;left=0;bottom=0;right=0;collapsible=0;dropTarget=0;fillColor=none;points=[[0,0.5],[1,0.5]];portConstraint=eastwest;fontSize=16;" parent="lyzOp8XXJ4mlaxMT_ynC-1" vertex="1">
          <mxGeometry y="130" width="400" height="40" as="geometry" />
        </mxCell>
        <mxCell id="lyzOp8XXJ4mlaxMT_ynC-15" value="" style="shape=partialRectangle;html=1;whiteSpace=wrap;connectable=0;strokeColor=inherit;overflow=hidden;fillColor=none;top=0;left=0;bottom=0;right=0;pointerEvents=1;fontSize=16;" parent="lyzOp8XXJ4mlaxMT_ynC-14" vertex="1" visible="0">
          <mxGeometry width="100" height="40" as="geometry">
            <mxRectangle width="100" height="40" as="alternateBounds" />
          </mxGeometry>
        </mxCell>
        <mxCell id="lyzOp8XXJ4mlaxMT_ynC-16" value="" style="shape=partialRectangle;html=1;whiteSpace=wrap;connectable=0;strokeColor=inherit;overflow=hidden;fillColor=none;top=0;left=0;bottom=0;right=0;pointerEvents=1;fontSize=16;" parent="lyzOp8XXJ4mlaxMT_ynC-14" vertex="1" visible="0">
          <mxGeometry x="100" width="199" height="40" as="geometry">
            <mxRectangle width="199" height="40" as="alternateBounds" />
          </mxGeometry>
        </mxCell>
        <mxCell id="lyzOp8XXJ4mlaxMT_ynC-17" value="" style="shape=partialRectangle;html=1;whiteSpace=wrap;connectable=0;strokeColor=inherit;overflow=hidden;fillColor=none;top=0;left=0;bottom=0;right=0;pointerEvents=1;fontSize=16;" parent="lyzOp8XXJ4mlaxMT_ynC-14" vertex="1" visible="0">
          <mxGeometry x="299" width="101" height="40" as="geometry">
            <mxRectangle width="101" height="40" as="alternateBounds" />
          </mxGeometry>
        </mxCell>
        <mxCell id="lyzOp8XXJ4mlaxMT_ynC-18" style="shape=tableRow;horizontal=0;startSize=0;swimlaneHead=0;swimlaneBody=0;strokeColor=inherit;top=0;left=0;bottom=0;right=0;collapsible=0;dropTarget=0;fillColor=none;points=[[0,0.5],[1,0.5]];portConstraint=eastwest;fontSize=16;" parent="lyzOp8XXJ4mlaxMT_ynC-1" vertex="1">
          <mxGeometry y="170" width="400" height="40" as="geometry" />
        </mxCell>
        <mxCell id="lyzOp8XXJ4mlaxMT_ynC-19" style="shape=partialRectangle;html=1;whiteSpace=wrap;connectable=0;strokeColor=inherit;overflow=hidden;fillColor=none;top=0;left=0;bottom=0;right=0;pointerEvents=1;fontSize=16;" parent="lyzOp8XXJ4mlaxMT_ynC-18" vertex="1" visible="0">
          <mxGeometry width="100" height="40" as="geometry">
            <mxRectangle width="100" height="40" as="alternateBounds" />
          </mxGeometry>
        </mxCell>
        <mxCell id="lyzOp8XXJ4mlaxMT_ynC-20" style="shape=partialRectangle;html=1;whiteSpace=wrap;connectable=0;strokeColor=inherit;overflow=hidden;fillColor=none;top=0;left=0;bottom=0;right=0;pointerEvents=1;fontSize=16;" parent="lyzOp8XXJ4mlaxMT_ynC-18" vertex="1" visible="0">
          <mxGeometry x="100" width="199" height="40" as="geometry">
            <mxRectangle width="199" height="40" as="alternateBounds" />
          </mxGeometry>
        </mxCell>
        <mxCell id="lyzOp8XXJ4mlaxMT_ynC-21" style="shape=partialRectangle;html=1;whiteSpace=wrap;connectable=0;strokeColor=inherit;overflow=hidden;fillColor=none;top=0;left=0;bottom=0;right=0;pointerEvents=1;fontSize=16;" parent="lyzOp8XXJ4mlaxMT_ynC-18" vertex="1" visible="0">
          <mxGeometry x="299" width="101" height="40" as="geometry">
            <mxRectangle width="101" height="40" as="alternateBounds" />
          </mxGeometry>
        </mxCell>
        <mxCell id="pqgz0Gr5nprxzs3ps0FN-1" value="" style="endArrow=none;html=1;rounded=0;" parent="1" edge="1">
          <mxGeometry width="50" height="50" relative="1" as="geometry">
            <mxPoint x="-72.50000000000045" y="1291" as="sourcePoint" />
            <mxPoint x="-96.50000000000045" y="1340" as="targetPoint" />
          </mxGeometry>
        </mxCell>
        <mxCell id="pqgz0Gr5nprxzs3ps0FN-2" value="" style="ellipse;whiteSpace=wrap;html=1;aspect=fixed;shadow=0;sketch=0;fillStyle=solid;strokeColor=#330000;strokeWidth=1;fillColor=#FFFFFF;" parent="1" vertex="1">
          <mxGeometry x="-81" y="1270" width="20" height="20" as="geometry" />
        </mxCell>
        <mxCell id="pqgz0Gr5nprxzs3ps0FN-3" value="" style="endArrow=none;html=1;rounded=0;" parent="1" edge="1">
          <mxGeometry width="50" height="50" relative="1" as="geometry">
            <mxPoint x="-213.50000000000045" y="1291" as="sourcePoint" />
            <mxPoint x="-189.50000000000045" y="1340" as="targetPoint" />
          </mxGeometry>
        </mxCell>
        <mxCell id="pqgz0Gr5nprxzs3ps0FN-4" value="" style="ellipse;whiteSpace=wrap;html=1;aspect=fixed;shadow=0;sketch=0;fillStyle=solid;strokeColor=#330000;strokeWidth=1;fillColor=#FFFFFF;flipV=0;flipH=1;perimeterSpacing=0;" parent="1" vertex="1">
          <mxGeometry x="-225.5" y="1272" width="20" height="20" as="geometry" />
        </mxCell>
        <mxCell id="pqgz0Gr5nprxzs3ps0FN-5" value="number" style="text;html=1;align=center;verticalAlign=middle;resizable=0;points=[];autosize=1;strokeColor=none;fillColor=none;flipV=0;flipH=1;" parent="1" vertex="1">
          <mxGeometry x="-271" y="1252" width="60" height="30" as="geometry" />
        </mxCell>
        <mxCell id="pqgz0Gr5nprxzs3ps0FN-6" value="" style="endArrow=none;html=1;rounded=0;" parent="1" edge="1">
          <mxGeometry width="50" height="50" relative="1" as="geometry">
            <mxPoint x="-139" y="1284" as="sourcePoint" />
            <mxPoint x="-132" y="1340" as="targetPoint" />
          </mxGeometry>
        </mxCell>
        <mxCell id="pqgz0Gr5nprxzs3ps0FN-7" value="" style="ellipse;whiteSpace=wrap;html=1;aspect=fixed;shadow=0;sketch=0;fillStyle=solid;strokeColor=#330000;strokeWidth=1;fillColor=#FFFFFF;" parent="1" vertex="1">
          <mxGeometry x="-150" y="1265" width="20" height="20" as="geometry" />
        </mxCell>
        <mxCell id="pqgz0Gr5nprxzs3ps0FN-8" value="series" style="text;html=1;align=center;verticalAlign=middle;resizable=0;points=[];autosize=1;strokeColor=none;fillColor=none;" parent="1" vertex="1">
          <mxGeometry x="-198" y="1252" width="60" height="30" as="geometry" />
        </mxCell>
        <mxCell id="pqgz0Gr5nprxzs3ps0FN-9" value="" style="curved=1;endArrow=classic;html=1;rounded=0;" parent="1" edge="1">
          <mxGeometry width="50" height="50" relative="1" as="geometry">
            <mxPoint x="-116.5" y="1323" as="sourcePoint" />
            <mxPoint x="-238" y="1323" as="targetPoint" />
            <Array as="points">
              <mxPoint x="-116.75" y="1323" />
              <mxPoint x="-146.75" y="1303" />
            </Array>
          </mxGeometry>
        </mxCell>
        <mxCell id="pqgz0Gr5nprxzs3ps0FN-10" value="" style="shape=waypoint;fillStyle=solid;size=6;pointerEvents=1;points=[];resizable=0;rotatable=0;perimeter=centerPerimeter;snapToPoint=1;strokeWidth=3;fillColor=none;strokeColor=default;perimeterSpacing=0;shadow=0;sketch=0;flipV=0;flipH=0;" parent="1" vertex="1">
          <mxGeometry x="-212" y="1307" width="20" height="20" as="geometry" />
        </mxCell>
        <mxCell id="pqgz0Gr5nprxzs3ps0FN-11" value="" style="shape=waypoint;fillStyle=solid;size=6;pointerEvents=1;points=[];resizable=0;rotatable=0;perimeter=centerPerimeter;snapToPoint=1;strokeWidth=3;fillColor=none;strokeColor=default;perimeterSpacing=0;shadow=0;sketch=0;flipV=0;flipH=0;" parent="1" vertex="1">
          <mxGeometry x="-145" y="1306" width="20" height="20" as="geometry" />
        </mxCell>
        <mxCell id="pqgz0Gr5nprxzs3ps0FN-12" value="" style="ellipse;whiteSpace=wrap;html=1;aspect=fixed;fillColor=#000000;" parent="1" vertex="1">
          <mxGeometry x="-245.5" y="1313" width="20" height="20" as="geometry" />
        </mxCell>
        <mxCell id="pqgz0Gr5nprxzs3ps0FN-14" value="" style="endArrow=none;html=1;rounded=0;" parent="1" edge="1">
          <mxGeometry width="50" height="50" relative="1" as="geometry">
            <mxPoint x="-70.50000000000045" y="2621" as="sourcePoint" />
            <mxPoint x="-94.50000000000045" y="2670" as="targetPoint" />
          </mxGeometry>
        </mxCell>
        <mxCell id="pqgz0Gr5nprxzs3ps0FN-15" value="" style="ellipse;whiteSpace=wrap;html=1;aspect=fixed;shadow=0;sketch=0;fillStyle=solid;strokeColor=#330000;strokeWidth=1;fillColor=#FFFFFF;" parent="1" vertex="1">
          <mxGeometry x="-79" y="2600" width="20" height="20" as="geometry" />
        </mxCell>
        <mxCell id="pqgz0Gr5nprxzs3ps0FN-16" value="" style="endArrow=none;html=1;rounded=0;" parent="1" edge="1">
          <mxGeometry width="50" height="50" relative="1" as="geometry">
            <mxPoint x="-211.50000000000045" y="2621" as="sourcePoint" />
            <mxPoint x="-187.50000000000045" y="2670" as="targetPoint" />
          </mxGeometry>
        </mxCell>
        <mxCell id="pqgz0Gr5nprxzs3ps0FN-17" value="" style="ellipse;whiteSpace=wrap;html=1;aspect=fixed;shadow=0;sketch=0;fillStyle=solid;strokeColor=#330000;strokeWidth=1;fillColor=#FFFFFF;flipV=0;flipH=1;perimeterSpacing=0;" parent="1" vertex="1">
          <mxGeometry x="-223.5" y="2602" width="20" height="20" as="geometry" />
        </mxCell>
        <mxCell id="pqgz0Gr5nprxzs3ps0FN-18" value="issueNumber" style="text;html=1;align=center;verticalAlign=middle;resizable=0;points=[];autosize=1;strokeColor=none;fillColor=none;flipV=0;flipH=1;" parent="1" vertex="1">
          <mxGeometry x="-284" y="2582" width="90" height="30" as="geometry" />
        </mxCell>
        <mxCell id="pqgz0Gr5nprxzs3ps0FN-19" value="" style="endArrow=none;html=1;rounded=0;" parent="1" edge="1">
          <mxGeometry width="50" height="50" relative="1" as="geometry">
            <mxPoint x="-137" y="2614" as="sourcePoint" />
            <mxPoint x="-130" y="2670" as="targetPoint" />
          </mxGeometry>
        </mxCell>
        <mxCell id="pqgz0Gr5nprxzs3ps0FN-20" value="" style="ellipse;whiteSpace=wrap;html=1;aspect=fixed;shadow=0;sketch=0;fillStyle=solid;strokeColor=#330000;strokeWidth=1;fillColor=#FFFFFF;" parent="1" vertex="1">
          <mxGeometry x="-148" y="2595" width="20" height="20" as="geometry" />
        </mxCell>
        <mxCell id="pqgz0Gr5nprxzs3ps0FN-21" value="series" style="text;html=1;align=center;verticalAlign=middle;resizable=0;points=[];autosize=1;strokeColor=none;fillColor=none;" parent="1" vertex="1">
          <mxGeometry x="-196" y="2582" width="60" height="30" as="geometry" />
        </mxCell>
        <mxCell id="pqgz0Gr5nprxzs3ps0FN-22" value="" style="curved=1;endArrow=classic;html=1;rounded=0;" parent="1" edge="1">
          <mxGeometry width="50" height="50" relative="1" as="geometry">
            <mxPoint x="-114.5" y="2653" as="sourcePoint" />
            <mxPoint x="-236" y="2653" as="targetPoint" />
            <Array as="points">
              <mxPoint x="-114.75" y="2653" />
              <mxPoint x="-144.75" y="2633" />
            </Array>
          </mxGeometry>
        </mxCell>
        <mxCell id="pqgz0Gr5nprxzs3ps0FN-23" value="" style="shape=waypoint;fillStyle=solid;size=6;pointerEvents=1;points=[];resizable=0;rotatable=0;perimeter=centerPerimeter;snapToPoint=1;strokeWidth=3;fillColor=none;strokeColor=default;perimeterSpacing=0;shadow=0;sketch=0;flipV=0;flipH=0;" parent="1" vertex="1">
          <mxGeometry x="-210" y="2637" width="20" height="20" as="geometry" />
        </mxCell>
        <mxCell id="pqgz0Gr5nprxzs3ps0FN-24" value="" style="shape=waypoint;fillStyle=solid;size=6;pointerEvents=1;points=[];resizable=0;rotatable=0;perimeter=centerPerimeter;snapToPoint=1;strokeWidth=3;fillColor=none;strokeColor=default;perimeterSpacing=0;shadow=0;sketch=0;flipV=0;flipH=0;" parent="1" vertex="1">
          <mxGeometry x="-143" y="2636" width="20" height="20" as="geometry" />
        </mxCell>
        <mxCell id="pqgz0Gr5nprxzs3ps0FN-25" value="" style="ellipse;whiteSpace=wrap;html=1;aspect=fixed;fillColor=#000000;" parent="1" vertex="1">
          <mxGeometry x="-243.5" y="2643" width="20" height="20" as="geometry" />
        </mxCell>
        <mxCell id="pqgz0Gr5nprxzs3ps0FN-26" value="coverTitle" style="text;html=1;align=center;verticalAlign=middle;resizable=0;points=[];autosize=1;strokeColor=none;fillColor=none;" parent="1" vertex="1">
          <mxGeometry x="-114" y="2577" width="80" height="30" as="geometry" />
        </mxCell>
      </root>
    </mxGraphModel>
  </diagram>
</mxfile>
